<svg xmlns="http://www.w3.org/2000/svg" xmlns:xlink="http://www.w3.org/1999/xlink" viewBox="0 0 400 300" width="406" height="306" class="illustration styles_illustrationTablet__1DWOa"><defs><linearGradient id="linear-gradient" x1="136.86" y1="189.16" x2="186.06" y2="152.95" gradientUnits="userSpaceOnUse"><stop offset="0.01" stop-color="#55823d"></stop><stop offset="1" stop-color="#006837"></stop></linearGradient><linearGradient id="linear-gradient-2" x1="57.07" y1="199.9" x2="70.59" y2="189.29" xlink:href="#linear-gradient"></linearGradient><linearGradient id="linear-gradient-3" x1="246.9" y1="230.42" x2="281.63" y2="185.87" xlink:href="#linear-gradient"></linearGradient><linearGradient id="linear-gradient-4" x1="174.43" y1="281.67" x2="202.75" y2="262.1" xlink:href="#linear-gradient"></linearGradient></defs><title>PP</title><g style="isolation: isolate;"><g id="Layer_2" data-name="Layer 2"><path d="M195.22,288.83,15.5,182.61c-5.72-3.21-10.63-8.49-5.05-11.94l180.37-104c2.71-1.68,6.82-2.78,9.57-1.18L389,175c5.72,3.32,6.75,12.6,1,15.93L218.91,288.66A23.9,23.9,0,0,1,195.22,288.83Z" fill="#55823d"></path><polygon points="244.85 144.03 141.3 202.06 101.81 180.59 189.6 129.24 244.85 144.03" fill="url(#linear-gradient)"></polygon><polygon points="162.7 144.73 59.14 202.76 37.29 187.73 126.11 139.99 162.7 144.73" fill="url(#linear-gradient-2)"></polygon><polygon points="331.63 210.65 255.75 249.46 195.02 208.04 271.44 165.3 331.63 210.65" fill="url(#linear-gradient-3)"></polygon><polygon points="208.74 270.77 185.34 282.99 168.44 273.01 195.38 257.94 208.74 270.77" fill="url(#linear-gradient-4)"></polygon><path d="M252.64,148.61h0Z" fill="#6dc3da"></path><path d="M247.2,155.43l-.12.19a.66.66,0,0,1,.26-.06C247.34,155.44,247.27,155.43,247.2,155.43Z" fill="#6dc3da"></path><path d="M246.73,156.94c-.09-.3-.2-.56.16-.61.15,0,.24-.16.35-.27s0-.18,0-.29l-.28.13a.45.45,0,0,1,0-.08q-.27.46-.53.93A3,3,0,0,0,246.73,156.94Z" fill="#6dc3da"></path><path d="M254.26,195.75l.37-1.94a6.57,6.57,0,0,0,.16-.87,4.8,4.8,0,0,0-.09-.74,2.26,2.26,0,0,0-.08-.66c-.09-.14-.38-.26-.5-.35l-.75-.52a1.49,1.49,0,0,1-.48-.64l-.92-1.72-.76-1.42c-.16-.29.11-.83.18-1.13a2,2,0,0,1,.15-.61l.43-.56c.32-.41.6-.65.52-1.23,0-.13-.1-.2,0-.3s0-.2,0-.27-.35-.34-.31-.51,0-.19-.13-.29-.12-.06-.25,0a1.35,1.35,0,0,0-.26.21s.08.19.11.24c-.25.11-.24.14-.35-.14-.05.15-.3-.1-.44-.13s-.12.07-.17,0l-.23-.17c-.16-.12-.46-.26-.57-.43s0-.36-.16-.5c-.29-.34-.47-.64-.89-.76s-.85-.11-1.1-.36l-.66-.65c-.14-.14-.35,0-.52.06-.39.12-.79-.16-1.17-.32l-.91-.37a1.15,1.15,0,0,1-.35-.14l-.59-.6c-.18-.18-.07-.29,0-.55s-.26-.5-.35-.63a1.87,1.87,0,0,0-.31-.38l-.64-.59s0-.18,0-.24-.1-.17-.14-.21l-.13-.17q0,.6.06,1.19c.08.07.18.18.17.28s-.08.15-.14.14a35.51,35.51,0,0,0,11.41,23.43c0-.44.09-.88.17-1.31Z" fill="#6dc3da"></path><path d="M252.32,168.76c.23.22.7-.2.46-.3l.2-.18c-.14.06-.43.28-.53.24s-.4,0-.58.07C251.48,169.09,252.16,168.61,252.32,168.76Z" fill="#6dc3da"></path><path d="M251.37,169.09a.37.37,0,0,0-.37.14c-.1.09-.17.19-.31.12a.24.24,0,0,1,.19-.18c0-.08-.06,0-.09-.12a2.49,2.49,0,0,0-.27.42l.22.06,0,.07c.29,0,.42-.12.67-.21A2.31,2.31,0,0,0,252,169c0-.07,0-.11,0-.15C251.94,169,251.5,169.1,251.37,169.09Z" fill="#6dc3da"></path><path d="M246,164.82l0,.1a.11.11,0,0,0,0-.06c.1,0,.07.17.06.27,0-.06.08-.12.15-.09s0,.16-.06.21a.53.53,0,0,1,.12-.06.34.34,0,0,0-.1.39c0,.14.13,0,.12-.1l.08,0c-.06-.12,0-.26,0-.33a1,1,0,0,1-.18-.36c-.06-.17-.38-.86-.24-.95h0c0,.06-.06,0-.12.06a.2.2,0,0,1,.13-.15l-.07-.06c-.1.18-.1.24,0,.35-.11-.05-.33-.16-.38,0s0,.25.19.31c-.26.06.06.37.12.5l.09.05C246,164.8,245.95,164.86,246,164.82Z" fill="#6dc3da"></path><path d="M312.65,177.62c0,.1,0,.3-.15.21s-.1-.25-.12-.31.11-.06.16-.07a.59.59,0,0,0-.68-.08c-.16.13-.56.33-.63.54s-.15.35-.11.41l.29.47c.14.22.31.42.47.63s.31.35.33.68.12.68,0,.82a16.26,16.26,0,0,1-1.31,1.11c-.15-.16.06-.39,0-.51l-.44-.48a1.11,1.11,0,0,0-.83-.46l0-.26c-.35,0-.28.06-.31.44a2.47,2.47,0,0,1-.21.65.69.69,0,0,0,0,.29c0,.18,0,.15.19.14s.19.55.22.65.38.32.51.42a1.42,1.42,0,0,1,.38.43c.08.2,0,.48,0,.69a4.85,4.85,0,0,0,.24.59,1.62,1.62,0,0,1-.72-.43c-.23-.18-.24-.28-.34-.57a2.8,2.8,0,0,0-.27-.81l-.63-.67c-.09-.1,0-.65.05-.81a5.85,5.85,0,0,0-.06-.89,6.53,6.53,0,0,0-.38-1.58l-.34.41c-.14.17-.13.17-.34.12s-.21,0-.17-.28.1-.38.06-.48a2,2,0,0,0-.52-.88,2.05,2.05,0,0,1-.46-.84c-.12.09-.3.28-.45.3l-.78.11s-.2,0-.22,0,0,.23,0,.28l-.38.39-1.09,1.12a2,2,0,0,1-.52.26c-.19.09-.12.24-.12.47a2.72,2.72,0,0,1,0,.68c0,.18-.19.46-.14.64a1.24,1.24,0,0,0,.29.63,2.2,2.2,0,0,1,.33.62c.18.41-.53.78-.58.22a5,5,0,0,1,0-.72c0-.24-.08-.28-.24-.45,0,.17,0,.35-.13.44l-.44.29c-.41-.78-.76-1.58-1.11-2.39a4,4,0,0,1-.3-.68,3.13,3.13,0,0,1,0-.54q0-.77,0-1.55l-.33.45c-.11.15-.12.13-.3.12s-.44-.4-.58-.55c.15,0,.45,0,.47-.21a1,1,0,0,1-.26,0,3,3,0,0,1-.64-.36c-.13-.08-.22-.42-.28-.56s-1.17.09-1.35.11a3.71,3.71,0,0,1-1.21-.2c-.17,0-.38,0-.47-.2s-.12-.41-.44-.29a1.18,1.18,0,0,1-.71,0c-.17,0-.28-.24-.44-.31a.69.69,0,0,1-.45-.47c-.09-.2-.13-.46-.34-.49-.37-.05-.36,0-.62.26-.09.1.22.47.28.58.23.38.42.78.63,1.18l.09-.53a1.7,1.7,0,0,1,.13.84,2.28,2.28,0,0,0,.94-.12,3.9,3.9,0,0,0,.65-.74c0,.22,0,.59.15.72a2.35,2.35,0,0,0,.34.23c.11,0,.23,0,.29.12s.12.31.21.33.09.14.08.3-.35.45-.45.57c0-.05,0-.1-.05-.15a1.09,1.09,0,0,0-.14.53c0,.19-.07.17-.23.25l-.5.24c-.1,0-.1.33-.19.37s-.2-.06-.28,0l-.37.16c-.17.08-.14.3-.3.36l-.83.3c-.08,0-.1.07-.15.15s-.15.09-.27.11-.48.12-.71.19-.21.25-.4.25-.32.07-.38-.24l-.17-.94a3.58,3.58,0,0,0-.58-1.22c-.15-.25-.17-.29-.43-.39s-.15-.5-.17-.66a2.56,2.56,0,0,0-.3-.66c-.06-.13-.21-.19-.29-.33l-.49-.89c-.08-.15-.15-.4-.34-.35l.07-.55-.22.65a3,3,0,0,1-.54-.82c-.18.22.13.59.23.8l.61,1.24c.12.25.08.52.26.72s.27.22.29.34l.1.63c0,.12,0,.36.1.44a2.33,2.33,0,0,1,.37.36,5.38,5.38,0,0,1,.36,1c0,.1.33.09.4.17l.34.39c.19.22.57.46.27.74.2.06.41.47.57.43l1.62-.43c.1,0,.39-.15.47,0s-.14.61-.16.72a5.3,5.3,0,0,1-.62,1.22,4.2,4.2,0,0,1-.57.94,12.39,12.39,0,0,0-1.91,2.17c-.11.18-.81,1.14-.7,1.31a.83.83,0,0,1,.18.71.66.66,0,0,0,.19.61c.29.4.19,1,.22,1.52a1.13,1.13,0,0,1-.58.94c-.17.08-.5.16-.63.3l-.49.57c-.14.17-.32.25-.23.46s.28.48.27.64a2.51,2.51,0,0,1-.09.77c-.08.14-.49.24-.63.3s-.18.21-.21.5a2.14,2.14,0,0,1-.07.68,11.64,11.64,0,0,1-.84,1.18,6.89,6.89,0,0,1-.56.48c-.1.09-.3.35-.44.37l-1.45.31-.67.14c-.11,0-.32-.26-.4-.33-.26-.24-.25-.23-.21-.61,0-.14-.15-.4-.2-.53l-.34-.84c-.07-.17-.27-.3-.4-.42s-.08-.47-.1-.59l-.15-1a3.93,3.93,0,0,0-.47-1.16l-.37-.75c-.05-.11,0-.32,0-.43a4.31,4.31,0,0,1,.36-1.55c.26-.46.1-.82,0-1.3l-.36-1.54c0-.16-.24-.34-.33-.46l-.52-.7c-.09-.12,0-.29,0-.45,0-.32.07-.64.11-1s0-.29-.11-.51-.17-.27-.46-.26-.49.11-.61,0l-.5-.62a3.46,3.46,0,0,0-1.22.14l-.72.37c-.19.1-.27,0-.48,0a.85.85,0,0,0-.56,0l-.79.28c-.13,0-.27-.13-.37-.2l-.76-.55a1.89,1.89,0,0,1-.68-.69l-1-1.69-.31-.54c0-.08.12-.4.16-.49s.22-.42.19-.59l-.18-.81a2.66,2.66,0,0,1-.15-.69A1.47,1.47,0,0,1,272,177l.93-1.69a2,2,0,0,1,.86-.75c.19-.12.28-.13.32-.37l.14-.89c.05-.35.75-.42.89-.76s.14-.57.38-.64c.06,0,.24.31.43.27s.28-.11.37-.06.22.16.26.13a6.54,6.54,0,0,1,.57-.34,4.44,4.44,0,0,1,1.2-.37,1.16,1.16,0,0,1,.37,0,1,1,0,0,0,.3.1c.1,0,.19-.12.29-.14a1.38,1.38,0,0,1,.27,0,1,1,0,0,0,.67-.08c.19-.11.36,0,.55.12-.14.31-.17.32,0,.62.07.14-.21.34-.31.45.15.14.34.39.54.44l1,.26c.26.07.18.35.44.46s.43.06.64.2.44.25.63-.11c0-.09-.1-.22-.05-.3s.11-.27.18-.29a1.25,1.25,0,0,1,.8-.05c.07,0,0,.17.1.19l.45.09c.12,0,.13.08.19.2s.15-.08.2-.06l.72.21a.54.54,0,0,0,.55,0c.28-.14.3-.18.57,0a.7.7,0,0,0,1-.3c.09-.26.54-1.05.37-1.32s.13-.52.08-.59-.16,0-.21.09-.16-.09-.23-.07-.17.21-.26.25a1.1,1.1,0,0,1-.33,0c-.21,0-.3-.22-.49-.25s-.23-.1-.28,0-.05.16-.22.19-.42-.19-.55-.26-.65-.82-.39-1.11l-.25,0c0-.28.33-.36.48-.36a1.26,1.26,0,0,0,.7-.16l-.24-.12c0-.14.35-.08.48-.06s.26,0,.46-.16a.89.89,0,0,1,.46-.2,1.34,1.34,0,0,0,.57,0c0,.08,0,.15.12.19s.08-.11.22.08.42.13.54.18.33,0,.53,0a.85.85,0,0,0,.59-.18c.16-.1.07-.39,0-.51s-.33-.2-.48-.34-.3-.36-.53-.39a2.2,2.2,0,0,1-.23-.14L289,168l.07-.1.25.05c-.08-.27.1-.35.29-.35-.09-.08-.22-.15-.27-.26h.25c-.06-.19.19-.05.23-.17s-.16-.08-.22-.07a.8.8,0,0,0-.58.23v-.07a.88.88,0,0,0-.5.26l0-.09c-.24,0-.13.27,0,.38s.31.07.51.07c-.14.25-.3.06-.45.15s-.47.37-.65.23c.11-.29,0-.26-.27-.37.12-.06.58-.23.27-.34a.88.88,0,0,0-.31,0c-.07,0-.17-.11-.24-.15.13,0,.29.08.36-.07-.14.07-.49-.09-.58,0s-.36.31-.38.45a1.23,1.23,0,0,1-.05.34c0,.06-.23.06-.24.14-.05.25,0,.44-.25.57s-.15.37-.06.55.39.27.37.33-.35,0-.46.06l-.48.44c0-.17.08-.21.2-.28-.09,0-.2,0-.31-.08a2.93,2.93,0,0,0-.41-.06c-.07,0-.17,0-.24.07s0,.15,0,.17-.22,0-.33-.07c-.12.14,0,.27.08.39s.11.17,0,.33c.2.14.42.19.38.48-.12-.09-.2-.2-.33,0,.16,0,.17.13.06.22s-.06.15,0,.29c-.13,0-.24,0-.29-.14s-.11-.08-.21,0c-.1-.35-.18-.39.1-.61-.25,0-.25,0-.41-.26s-.15-.35-.26-.44-.13-.29-.1-.56-.06-.25-.25-.4a2,2,0,0,0-.84-.51c-.08,0-.26-.25-.29-.33a.67.67,0,0,0-.28-.46c-.08.26-.19.13-.22-.06s0-.14-.19-.08-.31.07-.19.3-.11.26,0,.37a1.87,1.87,0,0,1,.39.29c.09.12.07.32.19.42s.21.22.39.23.31,0,.14.14c.16.13,1,.47.77.75-.08,0-.32-.37-.41-.27a.37.37,0,0,0-.14.25c0,.12,0,.11.13.17.24.18-.16.24-.15.35s-.3.44-.29.18a.33.33,0,0,0-.11.45c.08.16-.24.21-.28.08s-.85-.21-.54-.54a1.44,1.44,0,0,0,1,0c.1-.07,0-.14.12-.2s-.11-.52-.16-.53-.22,0-.2-.11a.12.12,0,0,0-.19-.13c0-.11-.21-.28-.31-.27s-.26-.14-.38-.26-.51-.31-.57-.6-.06-.29-.29-.4-.26-.11-.35,0a3,3,0,0,1-.75.5l-.61-.2c-.1,0-.27.19-.34.26s.08.35,0,.46-.35.18-.46.24c-.33.17-.43.44-.63.78-.06.1.2.19.07.36s-.28.27-.21.39-.24,0-.28.09-.12.25-.18.25a4.57,4.57,0,0,1-.63,0c-.19,0-.3.22-.45.27s-.37-.25-.21-.37c-.16.08-.24-.2-.45-.08s-.29,0-.43.06a1.35,1.35,0,0,0,0-.37l0-.2c0-.07-.08,0-.1,0s0-.24,0-.45.2-.53.12-.73a1,1,0,0,1,0-.59c-.11.09-.19-.08-.14-.19s.26-.1.33-.11l0-.07c.2-.18.29.06.47,0a.82.82,0,0,1,.57,0c.19.06.34,0,.51,0a1.06,1.06,0,0,0,.46,0c.33-.07.29-.71.28-1s0-.33-.19-.4-.15-.29-.12-.36c-.13,0-.08,0-.13-.07s-.2,0-.22-.05-.14-.13-.26-.12a.18.18,0,0,1-.2-.1l.1,0a.21.21,0,0,1-.14-.2.77.77,0,0,0,.41-.07c.25-.18.11.14.27.1s.37-.06.36-.15a1.44,1.44,0,0,0-.13-.39c.07,0,.19,0,.21.06s0,.11.11.12a.7.7,0,0,0,.44-.06s-.08,0-.12,0a.93.93,0,0,1,.4-.24c.19-.09,0-.22.08-.37s.34-.14.43-.18a.68.68,0,0,1,.41-.05c-.06,0-.22,0-.22-.11s.15,0,.16,0,0-.1,0-.14a.82.82,0,0,0,.16-.39c0-.08.15-.06.21-.13s.35-.09.55-.15c0,0,0-.11.05-.12l.17,0a1,1,0,0,1,.27,0c0-.16.11-.12.22-.13-.06,0-.23-.17-.15-.24s0-.1,0-.24,0-.23-.08-.34-.08-.14-.08-.28,0-.5.28-.51.34-.21.53-.3c-.13.18-.19.58.08.64-.16.25-.46.34-.41.68s.27.46.5.35l-.09.2c.23.13.42-.19.62-.21a.41.41,0,0,1,.28.19c0,.13.16.16.27.22a.38.38,0,0,0,0-.12l-.19,0c.14-.09.63-.1.73-.23a.67.67,0,0,1,.82-.16l-.14-.06c0,.21.3.24.4.11s.06-.17.09-.2.08,0,.11,0,.17-.1.22-.19a.56.56,0,0,1-.14.2c.36.17.14-.49.13-.65a.45.45,0,0,1,.11-.33c.08-.09,0-.24.14-.33.32-.24.4.29.63.31s.22-.18.21-.29,0-.38,0-.39-.1.06-.13,0a1.62,1.62,0,0,1-.14-.15s-.1-.31-.07-.32a1.55,1.55,0,0,1,.75-.21l.55.07c.25,0,0-.06.19-.16s.24,0,.35-.09.26,0,.35,0c-.05-.17-.39-.23-.54-.29,0,0,0-.1.05-.14l-1.56.32c-.05,0-.27.09-.3,0a.48.48,0,0,0-.3-.26c-.21-.08-.19-.07-.15-.3a.79.79,0,0,0,0-.39,1.58,1.58,0,0,1-.12-.47c0-.1.23-.26.3-.34s.39-.31.55-.51.21-.34.32-.39.26.05.2-.16a.51.51,0,0,0-.52-.39c-.36,0-.39,0-.64.25s-.24.32-.11.54-.85.7-.93.81c-.24.3-.65.79-.39,1.24.11.19.43.19.53.41s-.2.29-.31.39-.36.24-.4.52a3.38,3.38,0,0,1-.11.75c-.12.28-.33.28-.57.33s-.09.13-.12.23-.1.08-.21.09-.19.05-.21-.13a.84.84,0,0,1,0-.35c.07-.19-.21-.43-.32-.58s0-.19-.05-.26a1.64,1.64,0,0,1-.15-.31c0-.1.07-.27,0-.3s-.11-.19-.14-.29c-.07.26-.12.29-.33.44s-.26.27-.41.36-.82.07-.83-.29-.19-.87-.16-1.31,0-.38.32-.61a2.39,2.39,0,0,1,.49-.29,1.6,1.6,0,0,0,.56-.36c.15-.17.29-.32.46-.47a5.14,5.14,0,0,0,.75-1.13,7.64,7.64,0,0,1,.87-1,3.15,3.15,0,0,1,1-.88,10.66,10.66,0,0,1,1.34-.49c.18-.05.27-.34.43-.43a1,1,0,0,1,.55-.1,1.29,1.29,0,0,0-.39.67c.2,0,.37-.37.5-.53l.06.3.27-.36c0-.05.27,0,.33,0l-.17.28c.24.18.1-.26.3-.18l.61.24c.17.07-.15.23-.21.25a1.88,1.88,0,0,1-.5,0c.08.14.24.09.3.25s.22,0,.3,0,.34.09.46-.06.27.09.35.13-.2.06-.31,0c0,.34.53.21.69.21a1.45,1.45,0,0,1,.78.26,4.23,4.23,0,0,0,.81.39.89.89,0,0,1,.6.47c.08.26.07.25-.07.47s-.12.22-.26.27a1.07,1.07,0,0,1-.75,0,7,7,0,0,1-1.64-.56c.16.16.63.47.63.72s0,.74.18.84.58.4.83.3.07-.3-.08-.3-.21-.13-.31-.26c.23-.21.25-.16.53-.06l.69.24a3.6,3.6,0,0,1-.18-.53l.52-.35c.09-.06.26-.24.37-.2l.55.16c0-.1.11-.3.07-.4s-.19-.32-.2-.28l.12-.51c0-.06-.18-.24-.22-.29l.67.09c.17,0,.28.28.38.41-.11,0-.44,0-.49.08s.08.28.19.41.29.05.46,0,.06-.19.17-.33.24-.11.31-.14l.6-.27.92-.42c.09.29.09.29.35.35s.27-.28.42-.27a.87.87,0,0,0,.57,0,.64.64,0,0,1,.56,0l-.12.2c.28.08.27.1.46-.15s.06-.25-.11-.48a1.94,1.94,0,0,1,1.37.05l.82.33a3.11,3.11,0,0,1,.57.43c0-.1.12-.45,0-.51l-.6-.45c-.13-.1.08-.38.14-.52s-.26-.23-.35-.29l.6-.47c.14-.11.19-.49.25-.66s1,0,1.24,0l-.25.7c0,.12.16.4.22.51s-.23,1.11-.07,1.22.42.15.31.4-.13.46-.25.54l-.64.39c-.09.06-.38,0-.49-.06a1,1,0,0,0,.95.3,2.87,2.87,0,0,0,.83-.72c.24-.24-.38-.61.13-.77.1,0,.37-.18.45-.09l.39.45c0-.2,0-.39-.16-.5a.46.46,0,0,0-.48-.11c-.06,0-.56.12-.57.07s-.16-.38-.1-.51.27-.38.16-.54-.36-.39-.26-.53.3-.22.5-.3,0-.4,0-.49.32.27.26.39c-.15.29-.13.28,0,.56s.89.19,1.09.21a8.76,8.76,0,0,1-.84-.35c-.32-.15.23-.39.36-.43a1.15,1.15,0,0,1,.92.12,2.06,2.06,0,0,1,.33.21c.1.07.25,0,.37,0a1.48,1.48,0,0,0-.15-.41c-.07-.07-.35-.06-.44-.08s-.16-.59-.18-.73l1.28-.13.73-.07c.16,0,.1-.19.1-.35,0-.32,0-.32.23-.47h0a35.6,35.6,0,0,0-49.42-6,1.47,1.47,0,0,1,.53,0,7.34,7.34,0,0,1,1.2.32,3.44,3.44,0,0,1-1,.53l-1.39.1.63.11-1.08.32,1.77-.36c0,.29-.8.49-1,.64a2.54,2.54,0,0,1-.62.38l-.69.14.43,0a1.3,1.3,0,0,1-.44.35c-.14.07-.32,0-.47-.07l.07.21c-.38.08-.76.11-1.14.16h0c.21,0,.74,0,.69.2h-.66c.16,0,.66.06.64.3l-.57.07.33.18a.68.68,0,0,1-.43.32c-.11,0-.37-.13-.44-.07s.21.17,0,.33-.41.31-.34.42.08.08.2,0,.13,0,.23,0,0,.19.06.26-.15.08-.2.1-.13-.07-.15-.06-.08.13-.14.15l-.57.17c0-.17.1-.22,0-.33s-.16.11-.3,0c0,.21-.21.16-.32.05l-.48.56h0c.18-.06.32,0,.49,0a1.15,1.15,0,0,1,1.09.33l-.24.18a.49.49,0,0,1,.28.11c-.17.06-.23,0-.29.23s-.39.09-.47.11a.67.67,0,0,1-.36-.07c-.15-.05,0-.28-.24-.27l0,.24c-.15,0-.45.16-.5-.05-.06.22-.33.16-.43,0,0,0,0,.1,0,.14h-.15l-.54.71a1,1,0,0,1,.22-.13,1.42,1.42,0,0,1,.91-.11l-.07.28a3.74,3.74,0,0,0,.73-.25,1,1,0,0,1,.36,0c.14,0,.1.19.18.29s.14.09.2.24.07.21,0,.4,0,.16.15.07.16-.17.37,0,.23-.18.28-.23.29-.05.39-.07a1,1,0,0,1,.67.26c.12.12.42.59.54.54s.58-.12.67.17c-.07,0-.39.18-.36.26s.3,0,.37-.11.76.25.9.32c-.06.19-.32.19-.47.24.12,0,.26,0,.21.17.13-.06.3-.1.33-.27.12.08.3.16.3.33a.6.6,0,0,0-.47.12.64.64,0,0,0,.33.08c.21,0,.19,0,.27.18l-.41-.08,0,.27-.29,0c.34.16.69.29,1,.42a.73.73,0,0,1,.35.26c.15.16.25.16.46.19l-.14.21a1.59,1.59,0,0,1,.53,0c.22.09.13.23.11.46-.11,0-.27-.09-.35,0l.25.12c-.25.13-.34.26-.58.09a1.37,1.37,0,0,1,0,.56,1.54,1.54,0,0,1-.63-.5c.12-.06.31-.08.26-.27-.08,0-.25.14-.33.12s-.21-.23-.31-.28-.2-.08-.28,0,.08.15.09.33l-.27,0,.09.27c.14-.05.17-.12.22,0l.13.39c0-.2.14-.11.26-.06s.14.11.17.29.16.1.23.21a1.52,1.52,0,0,1,.05.43l-.16-.21c-.1.17.15.22.08.39,0,0-.08,0-.12,0l.08.2c-.07,0-.25-.22-.36-.28l-.59-.37c0,.05,0,.12.05.17l-.35-.15.2.34c0,.08.23.07.3.12l.36.26c.12.08.07.14.05.3l-1-.25c-.12,0-.11-.18-.18-.2l-.49-.13.05-.08a.7.7,0,0,1-.41-.15l.26-.13c-.15-.08-.32-.07-.41-.21s-.16-.41-.42-.24c0-.11-.06-.17-.16-.15s0,.1,0,.15c-.15,0-.31-.13-.43,0s-.32.08-.49.09-.28-.2-.22-.3.29-.18.26-.34a2,2,0,0,0,.75.06c.06,0,.42-.07.44-.13s-.21-.25-.27-.3l.6-.6c.05-.05.14-.09.1-.17l-.25-.46c-.13-.23-.39-.17-.52-.38s-.08-.15-.24-.08l-.37.14c0-.31.05-.26.32-.34-.15-.12-.46-.53-.64-.35l0-.25c0-.08-.15,0-.2,0s-.13-.37-.33-.18c.16,0,.19.13.26.29a1.76,1.76,0,0,1-1-.11l.29.27c-.13,0-.16-.12-.28-.13s-.07.12-.12.1l-.24-.09a2.71,2.71,0,0,0-.79,0,.84.84,0,0,1-.36-.1c-.14-.13,0-.2-.22-.18s-.18.12-.33,0a1.12,1.12,0,0,1-.47-.44l.76.07c-.25-.27-.48-.23-.83-.27,0,0-.07-.38-.08-.43s.13-.37.18-.48l0,0q-.49.69-1,1.4c.1.12.24.23.31.32l-.44.29c.14.06.26.15.39.06s.25,0,.4.09l-.21.14c.14.12.21.12.17.31s-.08.23.09.34a.72.72,0,0,0,.17-.4c0-.07.06-.34.19-.27s.35.15.37.25.14.35-.06.41c0,0,0-.08,0-.12-.41.23.5,1,.54.6,0-.12,0-.2.08-.28s.18-.12.18-.19c0-.33,0-.31.28-.44-.11-.17-.21-.26-.17-.46s.16-.16.34-.12.45,0,.53.1a.61.61,0,0,0,.43.26c-.09.17.06.28,0,.4s-.28,0-.37.06a1.35,1.35,0,0,0,.28.47c.15.14.22.25.05.45a2,2,0,0,1-.5.31c-.14.09-.24-.1-.35-.2l.17.38-.26-.14,0,.11-.27-.06c-.06,0,0-.17-.07-.17s-.32-.05-.39.11l.25.15a1.07,1.07,0,0,1-.3.38c-.2.11-.27,0-.48-.09a2.05,2.05,0,0,0-1-.17l.74.37a2.36,2.36,0,0,0,.67.09c-.08.13-.21.5-.34.56s-.18.11-.26.11-.2,0-.29,0c-.27.19-.29.21-.6.11l-.59-.16.39.18-.08.08a.43.43,0,0,1,.43.06c.1.06.25.2.09.28a.75.75,0,0,1-.45.07c-.06,0-.16.22-.19.27a2.72,2.72,0,0,0-.47.81l-.21,1c.13,0,.43,0,.53.13s.18.5.23.65.16.17.42.12.29.06.42.11a3.8,3.8,0,0,1,1,.52c.11.08.32.31.45.32l.59.06c.07,0,.44,0,.44.08,0,.27,0,.54,0,.81s.36.66.58.94.67-.23.63-.46L252,164c0-.13-.19-.3-.26-.41.24-.16.7-.33.86-.56a1,1,0,0,0,0-1,2.88,2.88,0,0,1-.37-.39c-.15-.21-.2-.19,0-.37s.22-.16.15-.44-.14-.33-.09-.48a.74.74,0,0,0,0-.6c-.05-.17.06-.23.23-.25s.62.24.94.09.25,0,.44.14.34.17.37.29.15.31.34.28a.67.67,0,0,1,.41.12c-.08.14-.13.18-.11.35a.78.78,0,0,1,0,.45s.09,0,.13,0-.3.26-.18.37c.21-.62.95.73,1.1-.1,0,0,.1,0,.13.08.08-.18.22-.35.18-.55s.18-.41.32-.38l0,.22c.32,0,.53.67.69.94s.34.44.35.61-.16.22-.14.31.17.14.2.16a1.18,1.18,0,0,1,.26.21c.06.1,0,.2.09.21a.87.87,0,0,1,.56.16c.14.1.42.23.11.28a3.35,3.35,0,0,0-.51.15c.1,0,.24,0,.35-.07-.08.14-.32.15-.45.19s-.09.3,0,.21a.34.34,0,0,1,.2-.13c.08,0,0-.08.1-.1a1,1,0,0,1,.39-.11.2.2,0,0,1-.14-.08c.1,0,.29,0,.33.12s-.11.14,0,.25c.11-.2.24-.1.42,0s0,.31,0,.39.12.21,0,.38a1.06,1.06,0,0,1-.38.23c-.13,0-.26,0-.42.05a.74.74,0,0,0-.33.27.76.76,0,0,1-.76.26,6,6,0,0,0-1,0c-.3,0-.62-.09-.7.32,0,.11-.32.14-.4.19a2.63,2.63,0,0,0-.36.38,4.46,4.46,0,0,1-.55.65c.41-.2.63-.63,1-.83s1-.56,1.24-.06l-.1,0c.21.14-.07.24-.18.33s-.24-.09-.39,0c.06,0,.21.18.22.18a.46.46,0,0,1,.28,0,.49.49,0,0,1-.18.29s.11,0,.16,0c-.08.21.15.39.31.43l-.05,0c.24.11.47.21.68.06l0,.11a.32.32,0,0,0,.14,0c-.14-.18.14-.44.24-.59.19.07.08.23,0,.38.13-.11.33.1.21.15a.81.81,0,0,1-.47.13s.06.09.09.12l-.58.24a.7.7,0,0,0-.21.11c-.08.07-.11-.1-.18,0s-.25.31-.39.45-.19,0-.25-.06c-.2-.29.29-.54.45-.66s.06,0,.12.06.18,0,.28-.13c-.13,0-.29-.05-.41,0a.46.46,0,0,1,.11-.21c-.15,0-.34.16-.47.24s-.08-.07-.17,0-.16,0-.22,0c.1.31-.43.2-.5.34l-.06-.07c-.08.17-.16.19-.32.25s-.11.12-.15.23-.37.72,0,.68l0-.08a.47.47,0,0,1,.09.1c-.12.09-.27,0-.4,0s0,.18-.14.18a1.18,1.18,0,0,0-.7.21c.19,0,.34-.12.52-.14l-.06,0h.15a.81.81,0,0,1-.36.14c-.12,0-.32,0-.39.09.28,0-.12.57-.23.66.07-.12-.14-.2-.18-.33,0,.17.22.39.14.54a3.36,3.36,0,0,0-.26.49h0a.86.86,0,0,1,.1-.31c-.07,0,0-.2-.19-.16a1.41,1.41,0,0,1,.07-.33s.1-.23,0-.16-.17.29-.1.59a.63.63,0,0,0-.23-.12c.06.09.21.12.26.2s-.05.27,0,.33.2.06.15.25-.13.14-.27.19c.12,0,.33,0,.3.14s-.26.08-.33.09l.1.08c-.06,0-.08.05-.15.05s.15,0,.24.07l-.2.11c-.05,0-.13-.06-.17,0s-.16.24-.22.32-.19,0-.27.13a1,1,0,0,1-.23.26,1.11,1.11,0,0,0-.56.63.88.88,0,0,0,0,.64,5.9,5.9,0,0,1,.32.87c0,.16.09.58,0,.7s-.16.21-.27.06-.22-.22-.23-.23a2.07,2.07,0,0,0-.14-.35c-.06-.13-.12-.2-.08-.35l-.07.06c-.06-.19.12-.47-.07-.6s-.26-.35-.46-.28-.22.11-.32,0a1.41,1.41,0,0,0-.31-.2c-.18,0-.47.19-.52-.11,0,.26-.61.07-.78.21.12,0,.56.07.23.23,0,0,.22.08.22.11a.1.1,0,0,1-.12.12c0-.12-.13-.17-.22-.22s0,.11,0,.18c-.08-.17-.15,0-.26-.08s-.2-.2-.36-.15-.22-.05-.3-.09-.42.12-.58.19-.87.56-.87.93c0,.11.15.23.16.34a1.07,1.07,0,0,1-.08.28,2.34,2.34,0,0,0-.14.62,2.24,2.24,0,0,0,.37,1.36c.17.26.24.44.52.53.06,0,.15.17.2.15l.35-.13a1.05,1.05,0,0,1,.31-.07c.08,0,.15.1.19.08a.66.66,0,0,0,.15-.07s0-.09,0-.13a.47.47,0,0,0,.19-.26c.07-.23,0-.49.29-.58a1.8,1.8,0,0,1,.53-.1c.13,0,.52-.06.4.23,0,.11-.21.46-.29.46s0,.07.12.06-.06.07-.1.1l0,0,.05,0a2.23,2.23,0,0,0-.11.42.27.27,0,0,1-.07-.24.82.82,0,0,0-.09.16c.18,0,0,.35,0,.48s-.14.33-.22.4a4.3,4.3,0,0,0,.78.06c.11,0,.19-.08.3-.06a1.54,1.54,0,0,1,.4.06.49.49,0,0,1,.35.55l-.08.53c0,.1-.1.19-.11.29-.06.48.52,1.27,1,1.09.27-.11.41-.22.69-.14a1.2,1.2,0,0,1,.58.46c0-.34.41-.8.57-1.08,0-.08.37-.14.45-.17l.69-.25c.21-.08.59.11.8.16l1.63.38a1.58,1.58,0,0,1,.82.29l1.27,1.22c.27.26.86.26,1.2.35s.57.61.77.88l.61.8c0,.07.16.28.23.31l1.31.47,1.31.47a5.52,5.52,0,0,1,1.06.76c.06,0,.47,0,.48.06l.14.59c.1.42.11.42-.13.75l-.85,1.23a1.21,1.21,0,0,0-.31.59l-.13,1.82c0,.4-.45.81-.65,1.13-.09.14-.17.37-.33.38s-.52,0-.65,0l-1.2.82c-.08.06-.08.65-.09.76s0,.34-.07.45l-1,1.28-.91,1.17c-.07.09-1-.32-1.17-.37-.09.33.46.36.52.65a2,2,0,0,1,.11.54c0,.13-.21.3-.27.41-.2.29-.47.29-.79.38a1.41,1.41,0,0,1-.78,0c.06.2.11.28,0,.47s0,.31-.06.36c-.32.22-.5.13-.83,0a2.58,2.58,0,0,0,0,.55c0,.12.22.31.17.43l-.3.65c-.1.21-.13.19-.36.25l-.08,0a35.61,35.61,0,0,0,54.83-15.12c-.27-.26-.52-.52-.76-.79a1.86,1.86,0,0,1-.36-.46,3.07,3.07,0,0,0-.34-.74c-.06-.07-.16,0-.18-.13l-.12-.43c-.07-.24-.38-.19-.39-.46s-.29-.29-.42-.41-.39-.47-.32-.57.46.1.55.11c.28,0,.24.14.38.35a4.1,4.1,0,0,0,.46.42c.16.15.36.21.49.4s.15.09.26.11.06.06.17.15.17,0,.17.17.19.07.22.22-.1.14-.08.27.18.11.25.14.07.25.08.32.17.12,0,.27a.24.24,0,0,1,.32-.06l0-.11s0,0,0,0a.17.17,0,0,1-.15,0c.07-.09.11-.23.2-.09v-.09a.1.1,0,0,1,.09,0,35.42,35.42,0,0,0,1.8-8.36l-.3.11C312.59,177.47,312.62,177.47,312.65,177.62Zm-25-5.49c0-.1.3,0,.36,0s.27-.11.37-.15c-.09.09-.25.15-.16.31C288.12,172.27,287.45,172.46,287.61,172.13Zm-2.73-.2a.56.56,0,0,0,.47.12c.11,0,.35,0,.34.15a2.46,2.46,0,0,1-.88-.11A.48.48,0,0,1,284.88,171.93ZM280,169.25a1.17,1.17,0,0,0,.21-.17c.05-.07,0-.15.07-.17a1.26,1.26,0,0,1-.07.64C280.1,169.56,279.89,169.35,280,169.25Zm-.13.54.1,0c.09-.06.47-.26.43.07l-.06.49c0,.16-.15.08-.16.16s-.11.14-.21.05,0-.13,0-.28-.08-.07-.08-.1.1-.14.09-.19S279.82,170,279.88,169.79Zm-1.47.55-.17.14-.19-.15C278.22,170.23,278.29,170.12,278.41,170.34Zm2.22-6.9c-.08,0-.22-.16-.23-.25s.19-.08.22,0A.11.11,0,0,1,280.63,163.43Zm4.13-1.76c-.15.1-.35.14-.45.31a.25.25,0,0,0-.08-.29A.71.71,0,0,1,284.76,161.68Zm-1-.89h-.05l0,.11C283.46,160.73,283.74,160.57,283.76,160.79ZM283.4,162c-.07.1-.17.17-.06.29a.63.63,0,0,0-.27.21C283,162.22,283.08,161.9,283.4,162Zm-2.56,1.15a.13.13,0,0,0,.08-.17H281c0,.09,0,.14.08.14-.21-.42.51,0,.07.07,0,0,.06.08.1.1-.18,0-.16.18-.18.33,0-.13,0-.25-.14-.24S280.81,163.22,280.84,163.13Zm12-7.23c-.21-.21-.14-.34.09-.44a.74.74,0,0,1,.4.21C293.28,155.72,293,156,292.86,155.89Zm3.75-.59c-.14.12-.55-.21-.6-.34l.18-.11C296.26,154.9,296.76,155.17,296.61,155.3Zm3.23-2.46a.32.32,0,0,1,.37.23l-.54.1C299.68,153,299.63,152.87,299.84,152.85Zm-2-5.59c.06,0,.06-.19.12-.23s.23,0,.31,0c0,.21.07.3-.12.34l-.63.14a1,1,0,0,1-.14-.13C297.46,147.11,297.63,147.35,297.79,147.26Zm-.6.26c-.12.13-.44.36-.57.2s-.14-.06-.25-.06-.12-.12-.16-.23a3.06,3.06,0,0,1,.67-.25C297,147.14,297.33,147.36,297.19,147.51Zm-1.16.4c-.2,0-.76.21-.84,0s.75-.26.83-.27l.24.13-.3,0S296,147.89,296,147.92Zm.44.11-.18.09-.15-.12C296.25,148,296.39,147.88,296.46,148Zm-.82-1.39c.24-.17.35-.11.63-.06l-.51.13.25.22-.42.17-.52-.07Zm-.45.53a1.93,1.93,0,0,1,.64.15,1.29,1.29,0,0,1-.66.25l-.62-.17C294.77,147.14,294.88,147.18,295.2,147.17Zm-.53.6-.24.19-.43-.06C294.31,147.66,294.32,147.64,294.67,147.77Zm-.57,5.81c.1-.19-.09-.21.12-.35s.38-.22.36-.29-.1-.26,0-.39l.44-.49a8.15,8.15,0,0,1,.68-.64,3.17,3.17,0,0,1,.86-.36,2.21,2.21,0,0,1,.9-.16,2.64,2.64,0,0,0,1-.41c.14-.11.92-.29.88.12s-.79.47-1,.54c-.38.13-.76.24-1.14.36a3.36,3.36,0,0,0-.79.5,2.1,2.1,0,0,0-.51.33c-.12.16-.24.32-.37.47s-.58.57-.57,1,.29.69.64.92c-.22.18-.73,0-1,0a1.1,1.1,0,0,1-.72-.38c-.17-.19-.2-.19-.18-.46S294,153.72,294.1,153.57Zm-1.32-6.18a1.15,1.15,0,0,0,.56-.09c.2-.05.31,0,.47.15l-.91.21.07.25a2,2,0,0,1-.75-.12l.46-.31-.58.15-.42-.11A1.83,1.83,0,0,1,292.79,147.4ZM282,156.67a.58.58,0,0,0,.07-.12c-.06,0,0,0-.09-.08.12,0,.2,0,.2-.2C282.22,156.49,282.14,156.54,282,156.67Zm.23-.29a.48.48,0,0,1,0-.17.48.48,0,0,1,.11,0c0-.1.11-.17.21-.16Zm2.32-1.69c.13,0,.11,0,.21-.08,0,.1-.08.14-.16.21s-.28.06-.32-.14A.52.52,0,0,1,284.56,154.69Zm-.29.19a1.12,1.12,0,0,0,.37,0c.11-.06.12-.18.26-.19a1,1,0,0,1-.72.39C284.27,155,284.33,155,284.27,154.89Zm-.33.11c0,.12,0,.17-.11.1l0-.1Zm-.13.18-.28.13-.2.06C283.44,155.25,283.67,155.09,283.81,155.18Zm-.23-.05a.16.16,0,0,1-.16.11l-.11,0C283.35,155.06,283.48,155.07,283.58,155.13Zm-.3.07c.16.06.07.11,0,.21h-.22A1.89,1.89,0,0,0,283.27,155.2Zm-.43.22c.1,0,.18-.08.24.05s-.42.4-.4.15S282.69,155.47,282.84,155.42Zm-.1.37.26-.21-.37.39C282.6,155.86,282.64,155.79,282.75,155.79Zm-.16.22a.17.17,0,0,0-.22.08c-.08.11-.13.07-.26,0,.08-.08.06,0,.07-.15h.09c0-.11,0-.19.12-.2l0,.24c.11-.06.07-.16.14-.21S282.61,155.92,282.58,156Zm-.12-.42,0,.08-.19.15C282.2,155.65,282.35,155.65,282.46,155.6Zm-.37.15c.11.09.14.19,0,.27l-.21,0Zm0,.33-.26.17C281.85,156,282,156.08,282.12,156.08Zm-.49.14c.06-.06.12-.07.17,0a.15.15,0,0,1-.18.1Zm-5.32,5.17-.05,0c.06,0,.09,0,.14,0s-.08.05-.16,0l0,.06,0-.07S276.2,161.31,276.31,161.39Zm-.92.76.09,0c0-.05,0-.12-.06-.17a.23.23,0,0,1,.23,0s-.08-.09-.12-.13l0-.08.1,0c-.05-.12.07-.24.1-.09.1,0,0,0,.09,0a.71.71,0,0,1,.46-.08c0,.21-.3.25-.33.39h-.11a.93.93,0,0,1,.15,0s-.07.1-.11.14l0,0c.07-.13.65-.2.74-.07s-.37.48-.26.71a.22.22,0,0,0-.23.1c.36,0,.52.08.64.48s.41.34.47.72a.17.17,0,0,0-.23-.07c.15,0,.44.25.24.39,0,.05.55-.15.51.15s-.18.37-.39.53c.08,0,.52.1.23.22a3.33,3.33,0,0,1-.57.14c-.12,0-.15-.09-.26-.1s-.24.12-.31.16c-.25.12-.31-.16-.45.19-.25-.18-.44.18-.62.06.1-.11.32-.22.36-.36s.28-.17.48-.14a.48.48,0,0,1,.15-.23l-.32.11s-.17-.08-.23-.08l.05,0c-.14-.08-.27.13-.36,0,0,0,0,0,0-.08s.3-.08.35-.15,0-.18,0-.32l-.22,0c.11-.08.17-.17,0-.27a.13.13,0,0,1,.18.08c.1-.08.19,0,.3,0l0-.08c.06,0,0,0,.09.06h0a.36.36,0,0,1,0-.42c-.18.14-.34-.32,0-.39-.17,0-.32.14-.45.05,0,.14-.08,0-.16,0v.11c-.17-.13,0-.15,0-.29s0-.1,0-.23,0-.12.05-.13a.52.52,0,0,0,0-.12c-.1.22-.23.1-.08,0-.13.05-.13.17-.14.28s0,.29-.09.2,0-.08,0-.14,0-.12,0-.22.06-.29.19-.36l0,0c-.09.08-.14.19-.26.12.19.11,0,.2-.12.12.13,0,.13-.09,0-.11,0-.06.15-.09.15-.14a.42.42,0,0,1,.11-.22l-.07,0,.05,0C275.42,162.23,275.38,162.23,275.39,162.15Zm.16.93c.08,0,.1.07.06.14A.21.21,0,0,1,275.55,163.08Zm.19.81a.21.21,0,0,1,.12-.17.13.13,0,0,1-.06.17Zm-.39-.85c-.05-.11,0-.16.08-.15A1.13,1.13,0,0,1,275.35,163Zm-.16,0a.32.32,0,0,1,.11-.08c0,.08,0,.15,0,.18S275.28,163.07,275.19,163Zm0-.61,0,0s0,0,0,.07Zm.25-.12c-.09.2-.28,0-.36-.12l0-.07.08.06v-.09c.05,0,.06,0,.08.07S275.35,162.33,275.45,162.31Zm-.22-.62c.06,0,.08.16-.06.17l0,.06c-.09,0-.13.07-.2.14l0-.06.06,0C274.86,161.82,275.14,161.74,275.24,161.69Zm-.24.44a.37.37,0,0,0-.05.27c-.1-.08,0-.19,0-.23s0,0,0-.05A.4.4,0,0,1,275,162.13Zm-1.06,2.66a.31.31,0,0,0,.21-.14c.05-.08.23-.07.32-.09a.71.71,0,0,0-.39,0,2.11,2.11,0,0,1,.3-.32,1,1,0,0,1-.37-.11s.16-.12.14-.19-.08-.16,0-.23.17,0,.24,0,.16,0,.25-.12l-.22-.08c.11-.18.33-.44.56-.3l0,.08c.07,0,.25-.1.3,0s.11.28.21.24c0,.26-.08.26-.28.4a.49.49,0,0,1,.13.42l-.1.32c0,.12-.11,0-.2.06-.28.08-.68.54-1,.29,0,0,.06-.07.1-.09l-.22-.05.16-.08Zm-21.56-11.54c-.13,0-.47.18-.58.11a.82.82,0,0,1-.22-.13c-.08-.11,0-.16-.11-.24a.22.22,0,0,1,.05-.41l.37.14c.1,0,.24,0,.34,0a1.66,1.66,0,0,1,.66.53A2.13,2.13,0,0,0,252.38,153.24Zm1,3.14a.24.24,0,0,1,.42.14S253.23,156.52,253.35,156.38Zm-.13-.1c-.08.2,0,.29-.1.5s-.43,0-.54-.08C252.29,156.44,253,155.93,253.22,156.29Zm-2.78,3.47s-.06-.12-.08-.16,0-.11.08-.18a.7.7,0,0,1,.4-.14h.2A.59.59,0,0,1,250.44,159.76Zm.85-.73c-.18-.06-.7-.12-.65-.42-.19.07-.17.23-.35.29s-.21.22-.34.31-.12-.33-.16-.36a3.87,3.87,0,0,0-.47.09c.06-.09.29-.26.32-.33s0-.17,0-.24,0-.19.06-.29.05-.41.26-.5.27.23,0,.28a.41.41,0,0,0,.07.14c.12-.16.15-.11.26,0s.21,0,.3.11.7.37.48.6a.5.5,0,0,1,.51.13Zm.4,1c-.09-.1-.15-.12-.14-.27s.13-.24.24-.2C252.07,159.69,251.78,160,251.69,160.07Zm5.36,7.51c-.19-.09-.46-.14-.31-.43l.09.21.6,0C257.29,167.55,257.24,167.67,257,167.58Zm-.43-1.7a1.14,1.14,0,0,1,.91.34C257.27,166.42,256.81,166,256.62,165.88Zm-4.07,12.9a1.13,1.13,0,0,1-.37-.19c.13-.2.42,0,.59,0a.9.9,0,0,1,.08.12C252.71,178.67,252.62,178.8,252.55,178.78Zm.56-.78c-.25,0-.5,0-.74,0,0,0,.2-.16.2-.2s-.19-.08-.24-.11-.2-.3-.38-.33-.36-.16-.54-.16-.12-.08-.22-.05a.23.23,0,0,1-.24-.09.22.22,0,0,0,.17,0c-.33-.33-.71.41-1,.24.17-.1.22-.3.43-.36a2,2,0,0,1,.72-.1,2.83,2.83,0,0,1,1.24.53l0,0a.65.65,0,0,0,.53.26s.09.14.19.15a.68.68,0,0,1,.31.18Zm2,.53c-.19,0-.31.06-.49.06s-.06-.09-.15,0-.05.25-.12.27-.11-.18-.16-.21-.19,0-.26,0c-.25,0-.33.07-.53-.08s.52,0,.67-.08c-.15-.22-.12-.29-.36-.4.23-.11.29,0,.53,0a.76.76,0,0,0,.21-.06c.08,0,.21,0,.28.07s.11,0,.17.07.09.16.25.19.21.1.17.17S255.28,178.53,255.14,178.53Zm.63.12c-.11-.27.28-.15.42-.13l.05.05C256.16,178.69,255.84,178.84,255.76,178.65Zm4.58-11.45c-.09.14-.11.13-.26.07s-.15-.07-.11-.28c-.28,0-.33.2-.6.26a.2.2,0,0,1,.16-.22,1.48,1.48,0,0,0-.9-.12c-.09,0-.32,0-.39-.06a.65.65,0,0,1,0-.41,2.4,2.4,0,0,0,.6-.88c.1-.24.39-.6.65-.49l-.13.28c-.15.13-.21.15-.21.36s.11.08.16.11,0,.18.05.25.49-.17.58-.06.14.14.11.32.18.11.2.21S260.44,167,260.34,167.2Zm7.37-11-.77.21c-.17,0-.22.14-.34.29a3,3,0,0,1-.46.58,2.48,2.48,0,0,1-.58.19l-.82.27c-.21.07-.2.07-.28.3-.15.42-.3.83-.44,1.26l-.51,1.59s-.39,0-.46,0l-.82-.3c-.13,0-.38-.07-.46-.21l-.51-.81a6.93,6.93,0,0,1-.8-1.39l-.34-1a2.25,2.25,0,0,1,.08-.83s0-.26,0-.27l.46-.2s.26-.07.26-.13l.06-.51-.67.2c-.31.09-.29.09-.52-.16s-.07-.35,0-.62-.16-.38-.34-.58,0-.33,0-.57.05-.28-.06-.53a6.1,6.1,0,0,0-.68-1.32c-.07-.09-.3-.51-.42-.53l-.68-.11a4.18,4.18,0,0,0-1.27-.11l-.74.09c-.13,0-.43-.25-.54-.31l-.65-.39c-.16-.09-.3-.4-.41-.55s-.21-.22-.19-.29,0-.32.11-.34l1.12-.32a3.64,3.64,0,0,1,.82-.16c.2,0,.23,0,.31-.17l.21-.54c-.33,0-.61,0-.85-.25l1.91-1,.78-.4a2.39,2.39,0,0,1,.7-.1l1.37-.18a2.52,2.52,0,0,1,.7-.09,12.44,12.44,0,0,1,1.89.55,2.66,2.66,0,0,0-1-.78l1.13-.52c.26-.12.58,0,.85.07l.67.12c.17,0,.19-.28.33-.35a1.11,1.11,0,0,1,.37,0l.84-.07a10,10,0,0,1,2.29.19,7.27,7.27,0,0,1,1.93.68l-1,.36c.21.17.44.12.69.13s-.11.64-.15.7c.21-.09.63-.38.84-.35l.56.09c.16,0,.23-.15.32-.28s.62-.14.84-.1a5.44,5.44,0,0,1,.94.37l-.81.47a2.37,2.37,0,0,1-.73.18l.2.17a3,3,0,0,1-.6.54,1.82,1.82,0,0,0-.6.47c-.12.21-.44.52-.34.76s.31.39.58.58l-.78.76.53.36c.14.1.12.37.15.54s.14.52.09.58l-.53.59a3.33,3.33,0,0,0-.48,1.15c-.05.15.1.5.14.65.07.31.06.3-.14.54l-1.26.77A4.3,4.3,0,0,1,267.71,156.24Zm3.75,2.74a.62.62,0,0,1-.46,0,1,1,0,0,1-.27-.06s-.09-.17-.14-.16l-.6.08c-.08-.21.23-.15.29-.33h-.08l0-.08c-.1,0-.15-.05-.07-.13-.14,0-.55.09-.59-.09.23,0,.48-.1.73-.09V158a.26.26,0,0,1-.25,0l.26-.13c-.1,0-.31-.12-.41-.08s-.27.13-.48,0c.07,0,.05-.07.15-.05s0-.07,0-.1.16.09.2,0-.18-.07-.06-.22.42.23.39-.09c-.11,0-.19,0-.22-.11.24,0,.23,0,.41.19s.18.06.18.13a.11.11,0,0,1-.14.12,3.38,3.38,0,0,0,.19.31,2.64,2.64,0,0,1,.13-.29c.07-.11.21,0,.1-.24.14,0,.22.13.31.23,0-.12,0-.26.14-.26s.19.12.28.26l0-.27c.24.11.31,0,.56,0-.15-.38.7,0,.52.25.14-.05.24,0,.36.11s0,.2.09.28c-.1.1-.18.24-.32.16,0,.2-.1.34-.28.29s-.36.19-.46.26l-.28,0C271.52,158.87,271.54,158.93,271.46,159Zm21.86,31.79-.16-.16a2.43,2.43,0,0,1-.12,1.09l-.57,1.92-.16.53s-.42.15-.47.17-.47-.11-.49-.19a5.47,5.47,0,0,0-.13-.69,1,1,0,0,1,0-.68c.07-.21.31-.42.34-.64a2.69,2.69,0,0,0-.16-.72c0-.11.08-.53.17-.55a2.16,2.16,0,0,0,.64-.24c.21-.1.28-.28.44-.46s.28-.23.3-.54.29,0,.37.13v0A1.6,1.6,0,0,1,293.33,190.76Zm19.5-12.65c-.11,0-.14.15-.16.26s-.17.12-.24.16,0,.09-.06.08a.31.31,0,0,1-.18-.05c-.16-.09-.13-.14-.13-.34.2-.13.35-.4.64-.24l0-.08C312.82,177.92,312.85,178,312.83,178.11Z" fill="#6dc3da"></path><path d="M294.61,169.55c-.06-.05-.06-.21-.12-.25-.26-.16-.31.25-.31.4a.55.55,0,0,1-.06-.64c-.11-.05-.35-.1-.43-.2a1.53,1.53,0,0,1-.08-.46s-.37-.15-.21-.19.2.15.36,0c-.11-.1-.21-.12-.12-.25a.3.3,0,0,1,.25-.1,3,3,0,0,1,.64.1.37.37,0,0,0-.22.34c.12-.17.16-.27.36-.29-.1-.31-.17-.11-.43-.19,0-.14.13-.29.06-.42s-.15-.33-.24-.22-.25,0-.38-.06-.26.12-.37.14c-.26,0-.24-.09-.32.23,0,.09-.31.16-.39.19s-.17.08-.21.3-.17.2-.23.27a.34.34,0,0,1,.34.33,1.22,1.22,0,0,0,.15.64c.07.16.25.21.33.35a.79.79,0,0,0,.41.43c-.19.06-.23,0-.28.25a2.78,2.78,0,0,1-.13.38.8.8,0,0,0,0,.42c0,.18.07.15.23.19s.15.14.26.18l.42.13a2,2,0,0,0,.68-.08,2.19,2.19,0,0,1,0-.67c.07-.34-.09-.18-.22-.43h.13a.64.64,0,0,0-.07-.21s-.15,0-.19,0,0-.23,0-.34a1.74,1.74,0,0,0,.62,0C294.84,169.7,294.7,169.64,294.61,169.55Z" fill="#6dc3da"></path><path d="M247,155.83l.12-.21A.24.24,0,0,0,247,155.83Z" fill="#075b5d"></path><path d="M248.61,153.31l.31-.43A1,1,0,0,0,248.61,153.31Z" fill="#075b5d"></path><path d="M282,156.48s0,.05.09.08a.58.58,0,0,1-.07.12c.13-.13.21-.18.18-.39C282.19,156.44,282.11,156.47,282,156.48Z" fill="#075b5d"></path><path d="M275.35,163a1.13,1.13,0,0,0,.08-.15C275.37,162.87,275.3,162.93,275.35,163Z" fill="#075b5d"></path><path d="M275.86,163.72a.21.21,0,0,0-.12.17h.06A.13.13,0,0,0,275.86,163.72Z" fill="#075b5d"></path><path d="M274.15,165s-.06.07-.1.09c.29.25.69-.21,1-.29.1,0,.17.06.2-.06l.1-.32a.49.49,0,0,0-.13-.42c.2-.14.26-.14.28-.4-.1,0-.13-.15-.21-.24s-.23,0-.3,0l0-.08c-.22-.13-.45.12-.56.3l.22.08c-.09.07-.14.15-.25.12s-.18-.08-.24,0-.09.08,0,.23-.09.14-.14.19a1,1,0,0,0,.37.11,2.11,2.11,0,0,0-.3.32.71.71,0,0,1,.39,0c-.09,0-.26,0-.32.09a.31.31,0,0,1-.21.14l.16,0-.16.08Z" fill="#075b5d"></path><path d="M275.48,162.25l-.05,0,.07,0a.42.42,0,0,0-.11.22s-.11.08-.15.14c.14,0,.14.08,0,.11.08.08.3,0,.12-.12.11.07.17,0,.26-.12l0,0c-.13.07-.15.22-.19.36s0,.1,0,.22-.07.09,0,.14.08-.13.09-.2,0-.23.14-.28c-.15.13,0,.25.08,0a.52.52,0,0,1,0,.12c-.09,0-.07,0-.05.13s0,.08,0,.23-.19.16,0,.29v-.11c.08,0,.2.13.16,0,.12.08.27-.08.45-.05-.3.07-.14.53,0,.39a.36.36,0,0,0,0,.42h0c0-.07,0,0-.09-.06l0,.08c-.11,0-.2-.07-.3,0a.13.13,0,0,0-.18-.08c.12.1.06.2,0,.27l.22,0c0,.15.06.18,0,.32s-.27.11-.35.15,0,.1,0,.08c.09.16.22-.05.36,0l-.05,0c.06,0,.21.09.23.08l.32-.11a.48.48,0,0,0-.15.23c-.2,0-.41-.12-.48.14s-.26.25-.36.36c.18.12.37-.24.62-.06.14-.35.19-.07.45-.19.07,0,.23-.16.31-.16s.13.12.26.1a3.33,3.33,0,0,0,.57-.14c.28-.12-.15-.2-.23-.22.21-.16.36-.24.39-.53s-.47-.1-.51-.15c.19-.14-.1-.39-.24-.39a.17.17,0,0,1,.23.07c-.06-.38-.38-.41-.47-.72s-.29-.43-.64-.48a.22.22,0,0,1,.23-.1c-.11-.23.4-.5.26-.71s-.67-.06-.74.07l0,0s.07-.11.11-.14a.93.93,0,0,0-.15,0H276c0-.14.3-.18.33-.39a.71.71,0,0,0-.46.08c-.07,0,0,0-.09,0,0-.15-.15,0-.1.09l-.1,0,0,.08s.07.09.12.13a.23.23,0,0,0-.23,0c0,.05,0,.12.06.17l-.09,0C275.38,162.23,275.42,162.23,275.48,162.25Z" fill="#075b5d"></path><path d="M253.79,148.44l-.07-.21c.14,0,.33.14.47.07a1.3,1.3,0,0,0,.44-.35l-.43,0,.69-.14a2.54,2.54,0,0,0,.62-.38c.24-.15,1-.35,1-.64l-1.77.36,1.08-.32-.63-.11,1.39-.1a3.44,3.44,0,0,0,1-.53,7.34,7.34,0,0,0-1.2-.32,1.47,1.47,0,0,0-.53,0,35.8,35.8,0,0,0-3.27,2.84C253,148.56,253.41,148.52,253.79,148.44Z" fill="#075b5d"></path><path d="M275.24,162.41l0,0,0,0S275.27,162.44,275.24,162.41Z" fill="#075b5d"></path><path d="M275,162l0,.06c.08-.07.11-.12.2-.14l0-.06c.14,0,.12-.2.06-.17s-.38.14-.19.28Z" fill="#075b5d"></path><path d="M274.9,162.16s-.06.16,0,.23a.37.37,0,0,1,.05-.27.4.4,0,0,0-.13,0S274.88,162.14,274.9,162.16Z" fill="#075b5d"></path><path d="M275.22,162.1v.09l-.08-.06,0,.07c.08.1.26.32.36.12-.11,0-.18,0-.15-.14S275.27,162.1,275.22,162.1Z" fill="#075b5d"></path><path d="M275.25,163.15c.08,0,.09-.09,0-.18a.32.32,0,0,0-.11.08C275.28,163.07,275.22,163.11,275.25,163.15Z" fill="#075b5d"></path><path d="M282.34,156l0-.24c-.1,0-.15.09-.12.2h-.09c0,.11,0,.07-.07.15.13,0,.18.07.26,0a.17.17,0,0,1,.22-.08c0-.09,0-.26-.1-.19S282.45,156,282.34,156Z" fill="#075b5d"></path><path d="M283.08,155.48c-.06-.13-.13-.09-.24-.05s-.15,0-.16.2S283,155.54,283.08,155.48Z" fill="#075b5d"></path><path d="M283,155.58l-.26.21c-.11,0-.15.07-.11.18Z" fill="#075b5d"></path><path d="M283.27,155.2a1.89,1.89,0,0,1-.21.2h.22C283.34,155.31,283.43,155.26,283.27,155.2Z" fill="#075b5d"></path><path d="M282.43,155.67l0-.08c-.11,0-.26.06-.22.23Z" fill="#075b5d"></path><path d="M276.24,161.47c.08,0,.09,0,.16,0s-.08,0-.14,0l.05,0c-.11-.09-.13,0-.14.08l0,.07Z" fill="#075b5d"></path><path d="M281.8,156.21c-.05-.06-.11,0-.17,0v.09A.15.15,0,0,0,281.8,156.21Z" fill="#075b5d"></path><path d="M281.86,156.25l.26-.17C282,156.08,281.85,156,281.86,156.25Z" fill="#075b5d"></path><path d="M282.09,155.75l-.21.23.21,0C282.22,155.93,282.2,155.84,282.09,155.75Z" fill="#075b5d"></path><path d="M255.76,178.65c.08.19.4,0,.47-.08l-.05-.05C256,178.51,255.66,178.39,255.76,178.65Z" fill="#075b5d"></path><path d="M283.58,155.13c-.1-.06-.23-.07-.27.06l.11,0A.16.16,0,0,0,283.58,155.13Z" fill="#075b5d"></path><path d="M270.27,154.58c0-.15-.19-.5-.14-.65a3.33,3.33,0,0,1,.48-1.15l.53-.59c0-.05-.08-.5-.09-.58s0-.44-.15-.54l-.53-.36.78-.76c-.27-.18-.45-.26-.58-.58s.21-.56.34-.76a1.82,1.82,0,0,1,.6-.47,3,3,0,0,0,.6-.54l-.2-.17a2.37,2.37,0,0,0,.73-.18l.81-.47a5.44,5.44,0,0,0-.94-.37c-.22,0-.69-.09-.84.1s-.17.3-.32.28l-.56-.09c-.21,0-.64.26-.84.35,0-.06.43-.69.15-.7s-.49,0-.69-.13l1-.36a7.27,7.27,0,0,0-1.93-.68,10,10,0,0,0-2.29-.19l-.84.07a1.11,1.11,0,0,0-.37,0c-.13.08-.15.38-.33.35l-.67-.12c-.27,0-.6-.19-.85-.07l-1.13.52a2.66,2.66,0,0,1,1,.78,12.44,12.44,0,0,0-1.89-.55,2.52,2.52,0,0,0-.7.09l-1.37.18a2.39,2.39,0,0,0-.7.1l-.78.4-1.91,1c.23.26.52.22.85.25l-.21.54c-.08.2-.11.16-.31.17a3.64,3.64,0,0,0-.82.16l-1.12.32c-.09,0-.09.25-.11.34s.16.24.19.29.25.45.41.55l.65.39c.11.07.42.33.54.31l.74-.09a4.18,4.18,0,0,1,1.27.11l.68.11c.11,0,.34.43.42.53a6.1,6.1,0,0,1,.68,1.32c.11.25.15.27.06.53s-.22.39,0,.57.41.3.34.58-.18.42,0,.62.21.25.52.16l.67-.2-.06.51c0,.06-.22.11-.26.13l-.46.2s0,.24,0,.27a2.25,2.25,0,0,0-.08.83l.34,1a6.93,6.93,0,0,0,.8,1.39l.51.81c.08.13.33.16.46.21l.82.3c.07,0,.44,0,.46,0l.51-1.59c.14-.43.28-.84.44-1.26.08-.23.07-.23.28-.3l.82-.27a2.48,2.48,0,0,0,.58-.19,3,3,0,0,0,.46-.58c.12-.15.17-.25.34-.29l.77-.21a4.3,4.3,0,0,0,1.16-.34l1.26-.77C270.33,154.88,270.34,154.89,270.27,154.58Z" fill="#075b5d"></path><path d="M260.09,166.32c0-.18,0-.18-.11-.32s-.47,0-.58.06,0-.22-.05-.25-.16,0-.16-.11.06-.23.21-.36l.13-.28c-.27-.11-.55.25-.65.49a2.4,2.4,0,0,1-.6.88.65.65,0,0,0,0,.41c.07.1.3.07.39.06a1.48,1.48,0,0,1,.9.12.2.2,0,0,0-.16.22c.27-.05.32-.24.6-.26,0,.21-.07.21.11.28s.17.06.26-.07,0-.5-.05-.66S260.08,166.38,260.09,166.32Z" fill="#075b5d"></path><path d="M255.18,178.32c-.16,0-.17,0-.25-.19s-.07,0-.17-.07-.21-.11-.28-.07a.76.76,0,0,1-.21.06c-.24,0-.3-.08-.53,0,.24.11.21.19.36.4-.14.11-.74-.14-.67.08s.28,0,.53.08c.07,0,.19,0,.26,0s0,.25.16.21.06-.23.12-.27.12,0,.15,0,.29-.06.49-.06.12.13.22,0S255.25,178.33,255.18,178.32Z" fill="#075b5d"></path><path d="M293.27,189.74c-.08-.12-.35-.53-.37-.13s-.1.32-.3.54-.23.35-.44.46a2.16,2.16,0,0,1-.64.24c-.09,0-.19.43-.17.55a2.69,2.69,0,0,1,.16.72c0,.22-.27.43-.34.64a1,1,0,0,0,0,.68,5.47,5.47,0,0,1,.13.69c0,.09.4.23.49.19s.47-.15.47-.17l.16-.53.57-1.92a2.43,2.43,0,0,0,.12-1.09l.16.16a1.6,1.6,0,0,0,0-1Z" fill="#075b5d"></path><path d="M312.7,178c-.29-.16-.44.11-.64.24,0,.21,0,.25.13.34a.31.31,0,0,0,.18.05c.09,0,0-.06.06-.08s.23,0,.24-.16,0-.27.16-.26,0-.19-.11-.21Z" fill="#075b5d"></path><path d="M305.34,151.76h0c-.25.15-.22.15-.23.47,0,.16.06.33-.1.35l-.73.07-1.28.13c0,.14.05.71.18.73s.37,0,.44.08a1.48,1.48,0,0,1,.15.41c-.12,0-.26.08-.37,0a2.06,2.06,0,0,0-.33-.21,1.15,1.15,0,0,0-.92-.12c-.13,0-.68.28-.36.43a8.76,8.76,0,0,0,.84.35c-.2,0-1,0-1.09-.21s-.17-.27,0-.56c.06-.12-.15-.41-.26-.39s.16.43,0,.49-.38.11-.5.3.18.4.26.53-.08.38-.16.54.06.38.1.51.51-.06.57-.07a.46.46,0,0,1,.48.11c.16.11.13.3.16.5l-.39-.45c-.08-.09-.35.06-.45.09-.51.16.11.53-.13.77a2.87,2.87,0,0,1-.83.72,1,1,0,0,1-.95-.3c.11,0,.4.11.49.06l.64-.39c.12-.08.19-.4.25-.54s-.12-.27-.31-.4.17-1,.07-1.22-.26-.39-.22-.51l.25-.7c-.22,0-1.16-.25-1.24,0s-.11.56-.25.66l-.6.47c.09.06.4.18.35.29s-.27.42-.14.52l.6.45c.08.06,0,.41,0,.51a3.11,3.11,0,0,0-.57-.43l-.82-.33a1.94,1.94,0,0,0-1.37-.05c.17.23.29.24.11.48s-.18.24-.46.15l.12-.2a.64.64,0,0,0-.56,0,.87.87,0,0,1-.57,0c-.15,0-.24.31-.42.27s-.27-.07-.35-.35l-.92.42-.6.27c-.07,0-.26.08-.31.14s0,.31-.17.33-.34.12-.46,0-.28-.25-.19-.41.38-.07.49-.08c-.1-.14-.21-.39-.38-.41l-.67-.09c0,.05.24.23.22.29l-.12.51s.19.25.2.28,0,.29-.07.4l-.55-.16c-.11,0-.28.14-.37.2l-.52.35a3.6,3.6,0,0,0,.18.53l-.69-.24c-.28-.1-.3-.15-.53.06.1.13.15.26.31.26s.22.24.08.3-.57-.19-.83-.3-.18-.59-.18-.84-.46-.55-.63-.72a7,7,0,0,0,1.64.56,1.07,1.07,0,0,0,.75,0c.14,0,.17-.13.26-.27s.16-.21.07-.47a.89.89,0,0,0-.6-.47,4.23,4.23,0,0,1-.81-.39,1.45,1.45,0,0,0-.78-.26c-.16,0-.74.13-.69-.21.12,0,.27.13.31,0s-.29-.2-.35-.13-.28.08-.46.06-.28.06-.3,0-.23-.11-.3-.25a1.88,1.88,0,0,0,.5,0c.07,0,.39-.18.21-.25l-.61-.24c-.2-.08-.06.37-.3.18l.17-.28c-.06,0-.3-.06-.33,0l-.27.36-.06-.3c-.13.16-.3.5-.5.53a1.29,1.29,0,0,1,.39-.67,1,1,0,0,0-.55.1c-.16.09-.25.38-.43.43a10.66,10.66,0,0,0-1.34.49,3.15,3.15,0,0,0-1,.88,7.64,7.64,0,0,0-.87,1,5.14,5.14,0,0,1-.75,1.13c-.16.15-.31.31-.46.47a1.6,1.6,0,0,1-.56.36,2.39,2.39,0,0,0-.49.29c-.27.23-.3.23-.32.61s.15.87.16,1.31.6.43.83.29.27-.25.41-.36.26-.18.33-.44c0,.1,0,.26.14.29s0,.2,0,.3a1.64,1.64,0,0,0,.15.31c0,.08,0,.2.05.26s.39.38.32.58a.84.84,0,0,0,0,.35c0,.19,0,.14.21.13s.18,0,.21-.09,0-.21.12-.23.45-.05.57-.33a3.38,3.38,0,0,0,.11-.75c0-.27.2-.34.4-.52s.38-.24.31-.39-.42-.22-.53-.41c-.26-.45.15-.94.39-1.24.08-.11,1-.6.93-.81s0-.37.11-.54.28-.26.64-.25a.51.51,0,0,1,.52.39c.06.21-.1.11-.2.16s-.24.29-.32.39-.38.32-.55.51-.28.24-.3.34a1.58,1.58,0,0,0,.12.47.79.79,0,0,1,0,.39c0,.24-.06.22.15.3a.48.48,0,0,1,.3.26c0,.06.25,0,.3,0l1.56-.32s0,.1-.05.14c.15.06.48.12.54.29-.09,0-.27-.09-.35,0s-.25,0-.35.09.06.19-.19.16l-.55-.07a1.55,1.55,0,0,0-.75.21s0,.28.07.32a1.62,1.62,0,0,0,.14.15s.09-.07.13,0,0,.32,0,.39-.08.3-.21.29-.31-.54-.63-.31c-.13.09-.06.24-.14.33a.45.45,0,0,0-.11.33c0,.16.22.82-.13.65a.56.56,0,0,0,.14-.2c-.05.09-.15.12-.22.19s-.09,0-.11,0,0,.15-.09.2-.4.1-.4-.11l.14.06a.67.67,0,0,0-.82.16c-.1.13-.59.14-.73.23l.19,0a.38.38,0,0,1,0,.12c-.11-.06-.23-.09-.27-.22a.41.41,0,0,0-.28-.19c-.19,0-.39.35-.62.21l.09-.2c-.23.11-.46-.1-.5-.35s.25-.42.41-.68c-.27-.07-.21-.46-.08-.64-.18.09-.34.29-.53.3s-.29.27-.28.51,0,.2.08.28,0,.19.08.34.17.14,0,.24.09.21.15.24c-.11,0-.25,0-.22.13a1,1,0,0,0-.27,0l-.17,0c-.05,0,0,.11-.05.12-.2.06-.38-.06-.55.15s-.19,0-.21.13a.82.82,0,0,1-.16.39s0,.11,0,.14-.16,0-.16,0,.16.09.22.11a.68.68,0,0,0-.41.05c-.09,0-.38.11-.43.18s.11.28-.08.37a.93.93,0,0,0-.4.24s.08,0,.12,0a.7.7,0,0,1-.44.06c-.09,0-.08,0-.11-.12s-.15-.05-.21-.06a1.44,1.44,0,0,1,.13.39c0,.09-.3.14-.36.15s0-.28-.27-.1a.77.77,0,0,1-.41.07.21.21,0,0,0,.14.2l-.1,0a.18.18,0,0,0,.2.1c.12,0,.16,0,.26.12s.17,0,.22.05,0,.1.13.07c0,.07,0,.32.12.36s.19.15.19.4,0,.91-.28,1a1.06,1.06,0,0,1-.46,0c-.17-.06-.33,0-.51,0a.82.82,0,0,0-.57,0c-.17,0-.27-.2-.47,0l0,.07c-.07,0-.29,0-.33.11s0,.29.14.19a1,1,0,0,0,0,.59c.08.2-.07.52-.12.73s-.14.26,0,.45.1,0,.1,0l0,.2a1.35,1.35,0,0,1,0,.37c.15-.11.27,0,.43-.06s.28.16.45.08c-.16.12.07.42.21.37s.26-.28.45-.27a4.57,4.57,0,0,0,.63,0c.07,0,.14-.2.18-.25s.21-.07.28-.09.14-.29.21-.39-.13-.26-.07-.36c.2-.34.3-.61.63-.78.11-.06.39-.13.46-.24s0-.42,0-.46.24-.29.34-.26l.61.2a3,3,0,0,0,.75-.5c.09-.11.23-.06.35,0s.23.14.29.4.36.39.57.6.21.29.38.26.33.16.31.27a.12.12,0,0,1,.19.13c0,.1.14.1.2.11s.24.49.16.53,0,.13-.12.2a1.44,1.44,0,0,1-1,0c-.31.34.47.31.54.54s.36.08.28-.08a.33.33,0,0,1,.11-.45c0,.26.31,0,.29-.18s.38-.16.15-.35c-.08-.06-.16-.06-.13-.17a.37.37,0,0,1,.14-.25c.1-.09.33.23.41.27.21-.28-.61-.62-.77-.75.18-.14,0-.14-.14-.14s-.25-.11-.39-.23-.1-.3-.19-.42a1.87,1.87,0,0,0-.39-.29c-.14-.11,0-.29,0-.37s0-.24.19-.3.16-.1.19.08.14.31.22.06a.67.67,0,0,1,.28.46c0,.08.21.32.29.33a2,2,0,0,1,.84.51c.19.15.27.15.25.4s-.1.4.1.56.18.31.26.44.15.26.41.26c-.27.22-.2.25-.1.61.1-.08.16-.12.21,0s.16.11.29.14c0-.14-.11-.2,0-.29s.1-.19-.06-.22c.13-.16.21,0,.33,0,0-.29-.18-.34-.38-.48.15-.16.15-.14,0-.33s-.21-.25-.08-.39c.11.08.2.18.33.07s-.06-.15,0-.17.16-.09.24-.07a2.93,2.93,0,0,1,.41.06c.11,0,.21,0,.31.08-.12.07-.22.11-.2.28l.48-.44c.11-.1.4.11.46-.06s-.31-.21-.37-.33-.14-.42.06-.55.19-.32.25-.57c0-.08.2-.07.24-.14a1.23,1.23,0,0,0,.05-.34c0-.14.29-.35.38-.45s.44.07.58,0c-.07.14-.23.08-.36.07.06,0,.16.16.24.15a.88.88,0,0,1,.31,0c.31.11-.15.28-.27.34.24.12.38.08.27.37.18.14.48-.14.65-.23s.31.1.45-.15c-.2,0-.38.07-.51-.07s-.2-.41,0-.38l0,.09a.88.88,0,0,1,.5-.26v.07a.8.8,0,0,1,.58-.23c.06,0,.26-.07.22.07s-.29,0-.23.17h-.25c.05.11.18.18.27.26-.2,0-.37.08-.29.35l-.25-.05-.07.1.26.2a2.2,2.2,0,0,0,.23.14c.22,0,.36.23.53.39s.34.18.48.34.19.4,0,.51a.85.85,0,0,1-.59.18c-.2,0-.33.1-.53,0s-.49-.11-.54-.18-.09,0-.22-.08-.17-.11-.12-.19a1.34,1.34,0,0,1-.57,0,.89.89,0,0,0-.46.2c-.2.13-.21.2-.46.16s-.43-.08-.48.06l.24.12a1.26,1.26,0,0,1-.7.16c-.15,0-.52.08-.48.36l.25,0c-.26.29.15,1,.39,1.11s.39.29.55.26.16,0,.22-.19.15-.07.28,0,.28.26.49.25a1.1,1.1,0,0,0,.33,0c.09,0,.16-.24.26-.25s.16.13.23.07.15-.16.21-.09-.19.42-.08.59-.28,1.06-.37,1.32a.7.7,0,0,1-1,.3c-.27-.13-.3-.09-.57,0a.54.54,0,0,1-.55,0l-.72-.21c-.05,0-.17.12-.2.06s-.07-.18-.19-.2l-.45-.09c-.09,0,0-.17-.1-.19a1.25,1.25,0,0,0-.8.05c-.07,0-.14.23-.18.29s.1.21.05.3c-.19.37-.34.32-.63.11s-.41-.11-.64-.2-.18-.39-.44-.46l-1-.26c-.19-.05-.38-.3-.54-.44.1-.1.38-.31.31-.45-.16-.3-.13-.31,0-.62-.19-.08-.36-.23-.55-.12a1,1,0,0,1-.67.08,1.38,1.38,0,0,0-.27,0c-.1,0-.19.13-.29.14a1,1,0,0,1-.3-.1,1.16,1.16,0,0,0-.37,0,4.44,4.44,0,0,0-1.2.37,6.54,6.54,0,0,0-.57.34s-.22-.11-.26-.13-.28,0-.37.06-.37-.28-.43-.27c-.24.07-.28.4-.38.64s-.84.41-.89.76l-.14.89c0,.24-.12.24-.32.37a2,2,0,0,0-.86.75L272,177a1.47,1.47,0,0,0-.21.37,2.66,2.66,0,0,0,.15.69l.18.81c0,.16-.13.44-.19.59s-.2.4-.16.49l.31.54,1,1.69a1.89,1.89,0,0,0,.68.69l.76.55c.1.07.24.24.37.2l.79-.28a.85.85,0,0,1,.56,0c.21.06.29.11.48,0l.72-.37a3.46,3.46,0,0,1,1.22-.14l.5.62c.12.14.45,0,.61,0s.27,0,.46.26.15.23.11.51-.08.64-.11,1c0,.16-.09.32,0,.45l.52.7c.09.12.3.31.33.46l.36,1.54c.11.47.27.84,0,1.3a4.31,4.31,0,0,0-.36,1.55c0,.11-.09.32,0,.43l.37.75a3.93,3.93,0,0,1,.47,1.16l.15,1c0,.12,0,.51.1.59s.33.25.4.42l.34.84c.05.13.22.39.2.53,0,.38,0,.37.21.61.08.07.29.36.4.33l.67-.14,1.45-.31c.13,0,.33-.28.44-.37a6.89,6.89,0,0,0,.56-.48,11.64,11.64,0,0,0,.84-1.18,2.14,2.14,0,0,0,.07-.68c0-.28,0-.39.21-.5s.55-.17.63-.3a2.51,2.51,0,0,0,.09-.77c0-.16-.2-.49-.27-.64s.08-.3.23-.46l.49-.57c.13-.15.46-.22.63-.3a1.13,1.13,0,0,0,.58-.94c0-.5.08-1.12-.22-1.52a.66.66,0,0,1-.19-.61.83.83,0,0,0-.18-.71c-.11-.17.59-1.12.7-1.31a12.39,12.39,0,0,1,1.91-2.17,4.2,4.2,0,0,0,.57-.94,5.3,5.3,0,0,0,.62-1.22c0-.11.22-.63.16-.72s-.37,0-.47,0l-1.62.43c-.16,0-.37-.37-.57-.43.29-.28-.09-.52-.27-.74l-.34-.39c-.07-.09-.37-.07-.4-.17a5.38,5.38,0,0,0-.36-1,2.33,2.33,0,0,0-.37-.36c-.09-.09-.08-.32-.1-.44l-.1-.63c0-.12-.21-.26-.29-.34s-.14-.47-.26-.72l-.61-1.24c-.1-.2-.41-.57-.23-.8a3,3,0,0,0,.54.82l.22-.65-.07.55c.19-.05.26.2.34.35l.49.89c.08.14.22.2.29.33a2.56,2.56,0,0,1,.3.66c0,.16,0,.61.17.66s.28.14.43.39a3.58,3.58,0,0,1,.58,1.22l.17.94c.06.31.08.24.38.24s.23-.2.4-.25.47-.14.71-.19.2,0,.27-.11.07-.12.15-.15l.83-.3c.15-.06.13-.28.3-.36l.37-.16c.08,0,.21.07.28,0s.09-.33.19-.37l.5-.24c.16-.08.23-.06.23-.25a1.09,1.09,0,0,1,.14-.53c0,.05,0,.1.05.15.1-.12.45-.4.45-.57s.08-.28-.08-.3-.16-.24-.21-.33-.19-.07-.29-.12a2.35,2.35,0,0,1-.34-.23c-.18-.13-.13-.49-.15-.72a3.9,3.9,0,0,1-.65.74,2.28,2.28,0,0,1-.94.12,1.7,1.7,0,0,0-.13-.84l-.09.53c-.21-.39-.4-.8-.63-1.18-.07-.11-.37-.47-.28-.58.25-.3.25-.31.62-.26.21,0,.25.29.34.49a.69.69,0,0,0,.45.47c.16.07.27.29.44.31a1.18,1.18,0,0,0,.71,0c.32-.12.28,0,.44.29s.29.16.47.2a3.71,3.71,0,0,0,1.21.2c.18,0,1.28-.27,1.35-.11s.15.48.28.56a3,3,0,0,0,.64.36,1,1,0,0,0,.26,0c0,.2-.33.18-.47.21.14.15.38.54.58.55s.19,0,.3-.12l.33-.45q0,.77,0,1.55a3.13,3.13,0,0,0,0,.54,4,4,0,0,0,.3.68c.36.81.7,1.61,1.11,2.39l.44-.29c.14-.09.11-.27.13-.44.16.17.25.21.24.45a5,5,0,0,0,0,.72c.05.56.76.2.58-.22a2.2,2.2,0,0,0-.33-.62,1.24,1.24,0,0,1-.29-.63c0-.18.09-.46.14-.64a2.72,2.72,0,0,0,0-.68c0-.23-.08-.38.12-.47a2,2,0,0,0,.52-.26l1.09-1.12.38-.39s0-.23,0-.28.19,0,.22,0l.78-.11c.15,0,.33-.21.45-.3a2.05,2.05,0,0,0,.46.84,2,2,0,0,1,.52.88c0,.1,0,.37-.06.48s-.05.23.17.28.2.05.34-.12l.34-.41a6.53,6.53,0,0,1,.38,1.58,5.85,5.85,0,0,1,.06.89c0,.15-.15.71-.05.81l.63.67a2.8,2.8,0,0,1,.27.81c.1.29.11.4.34.57a1.62,1.62,0,0,0,.72.43,4.85,4.85,0,0,1-.24-.59c0-.21,0-.49,0-.69a1.42,1.42,0,0,0-.38-.43c-.13-.1-.46-.25-.51-.42s-.14-.66-.22-.65-.17,0-.19-.14a.69.69,0,0,1,0-.29,2.47,2.47,0,0,0,.21-.65c0-.38,0-.43.31-.44l0,.26a1.11,1.11,0,0,1,.83.46l.44.48c.11.12-.1.35,0,.51a16.26,16.26,0,0,0,1.31-1.11c.15-.14,0-.62,0-.82s-.13-.42-.33-.68-.33-.41-.47-.63l-.29-.47c0-.06.1-.34.11-.41s.46-.41.63-.54a.59.59,0,0,1,.68.08c-.06,0-.11.06-.16.07s.07.29.12.31.17-.11.15-.21-.06-.15.07-.2l.3-.11c.1-1.08.15-2.18.15-3.28A35.45,35.45,0,0,0,305.34,151.76Zm-11.15,18.06c-.05.11-.11.22,0,.34s.15,0,.19,0a.64.64,0,0,1,.07.21h-.13c.14.24.29.09.22.43a2.19,2.19,0,0,0,0,.67,2,2,0,0,1-.68.08l-.42-.13c-.11,0-.12-.14-.26-.18s-.21,0-.23-.19a.8.8,0,0,1,0-.42,2.78,2.78,0,0,0,.13-.38c.05-.21.09-.19.28-.25a.79.79,0,0,1-.41-.43c-.08-.14-.26-.2-.33-.35a1.22,1.22,0,0,1-.15-.64.34.34,0,0,0-.34-.33c.06-.07.22-.18.23-.27s0-.22.21-.3.37-.1.39-.19c.07-.32.06-.19.32-.23.1,0,.27-.18.37-.14s.28.18.38.06.21.16.24.22,0,.28-.06.42c.26.08.33-.12.43.19-.2,0-.24.13-.36.29a.37.37,0,0,1,.22-.34,3,3,0,0,0-.64-.1.3.3,0,0,0-.25.1c-.09.13,0,.15.12.25-.16.12-.2-.07-.36,0s.21.18.21.19a1.53,1.53,0,0,0,.08.46c.08.1.32.15.43.2a.55.55,0,0,0,.06.64c0-.15,0-.57.31-.4.06,0,.06.2.12.25s.23.14.19.3A1.74,1.74,0,0,1,294.18,169.81Z" fill="#075b5d"></path><path d="M272.36,158.55c.18,0,.29-.09.28-.29.14.08.22-.06.32-.16-.12-.08,0-.25-.09-.28s-.22-.16-.36-.11c.17-.29-.67-.64-.52-.25-.25,0-.32.1-.56,0l0,.27c-.1-.14-.13-.25-.28-.26s-.18.14-.14.26c-.09-.1-.17-.26-.31-.23.11.25,0,.13-.1.24a2.64,2.64,0,0,0-.13.29,3.38,3.38,0,0,1-.19-.31.11.11,0,0,0,.14-.12c0-.07-.15-.1-.18-.13s-.17-.2-.41-.19c0,.12.12.1.22.11,0,.31-.29,0-.39.09s.1.14.06.22-.14,0-.2,0,0,.07,0,.1-.07,0-.15.05c.21.09.27,0,.48,0s.31.06.41.08L270,158a.26.26,0,0,0,.25,0v.07c-.25,0-.5.1-.73.09,0,.19.45.09.59.09-.07.08,0,.15.07.13l0,.08h.08c-.06.18-.37.12-.29.33l.6-.08c.05,0,.1.14.14.16a1,1,0,0,0,.27.06.62.62,0,0,0,.46,0c.08,0,.06-.11.15-.12l.28,0C272,158.75,272.24,158.52,272.36,158.55Z" fill="#075b5d"></path><path d="M253.19,177.7c-.09,0-.14-.16-.19-.15a.65.65,0,0,1-.53-.26l0,0a2.83,2.83,0,0,0-1.24-.53,2,2,0,0,0-.72.1c-.21.05-.26.25-.43.36.33.17.71-.57,1-.24a.22.22,0,0,1-.17,0,.23.23,0,0,0,.24.09c.1,0,.11,0,.22.05s.35.14.54.16.19.24.38.33.25,0,.24.11-.17.17-.2.2c.24,0,.49,0,.74,0l.39-.11A.68.68,0,0,0,253.19,177.7Z" fill="#075b5d"></path><path d="M252.18,178.58a1.13,1.13,0,0,0,.37.19c.07,0,.16-.1.3-.06a.9.9,0,0,0-.08-.12C252.61,178.55,252.32,178.38,252.18,178.58Z" fill="#075b5d"></path><path d="M250.45,159.42c-.09.08-.12.06-.08.18s0,.16.08.16a.59.59,0,0,0,.61-.47h-.2A.7.7,0,0,0,250.45,159.42Z" fill="#075b5d"></path><path d="M252.23,152.73c-.1-.05-.24,0-.34,0l-.37-.14a.22.22,0,0,0-.05.41c.15.07,0,.12.11.24a.82.82,0,0,0,.22.13c.11.07.46-.09.58-.11a2.13,2.13,0,0,1,.51,0A1.66,1.66,0,0,0,252.23,152.73Z" fill="#075b5d"></path><path d="M253.77,156.52a.24.24,0,0,0-.42-.14C253.23,156.52,253.72,156.52,253.77,156.52Z" fill="#075b5d"></path><path d="M251.06,158.7c.23-.23-.36-.52-.48-.6s-.23,0-.3-.11-.15-.17-.26,0a.41.41,0,0,1-.07-.14c.24,0,.16-.36,0-.28s-.2.27-.26.5,0,.19-.06.29.06.18,0,.24-.27.24-.32.33a3.87,3.87,0,0,1,.47-.09s.07.42.16.36.23-.27.34-.31.17-.22.35-.29c0,.3.47.36.65.42l.27-.18A.5.5,0,0,0,251.06,158.7Z" fill="#075b5d"></path><path d="M253.12,156.78c.12-.2,0-.3.1-.5-.25-.35-.93.15-.64.41C252.69,156.79,253,157,253.12,156.78Z" fill="#075b5d"></path><path d="M251.79,159.6c-.12,0-.23.1-.24.2s0,.17.14.27C251.78,160,252.07,159.69,251.79,159.6Z" fill="#075b5d"></path><path d="M257.52,166.22a1.14,1.14,0,0,0-.91-.34C256.81,166,257.27,166.42,257.52,166.22Z" fill="#075b5d"></path><path d="M256.74,167.15c-.16.29.11.34.31.43s.25,0,.38-.17l-.6,0Z" fill="#075b5d"></path><path d="M275.55,163.08a.21.21,0,0,0,.06.14C275.65,163.15,275.63,163.1,275.55,163.08Z" fill="#075b5d"></path><path d="M310.78,186.07c.15-.15,0-.14,0-.27s0-.29-.08-.32-.24-.06-.25-.14.1-.17.08-.27-.22-.13-.22-.22-.06-.09-.17-.17,0-.11-.17-.15-.19,0-.26-.11-.33-.24-.49-.4a4.1,4.1,0,0,1-.46-.42c-.15-.21-.11-.32-.38-.35-.09,0-.51-.17-.55-.11s.27.52.32.57.41.17.42.41.32.22.39.46l.12.43c0,.1.12.06.18.13a3.07,3.07,0,0,1,.34.74,1.86,1.86,0,0,0,.36.46c.24.27.49.53.76.79.15-.37.29-.75.42-1.12A.24.24,0,0,0,310.78,186.07Z" fill="#075b5d"></path><path d="M285.69,172.21c0-.12-.23-.16-.34-.15a.56.56,0,0,1-.47-.12.48.48,0,0,0-.08.17A2.46,2.46,0,0,0,285.69,172.21Z" fill="#075b5d"></path><path d="M288.19,172.25c-.09-.16.07-.22.16-.31-.1,0-.26.16-.37.15s-.31-.06-.36,0C287.45,172.46,288.12,172.27,288.19,172.25Z" fill="#075b5d"></path><path d="M311.15,185.73c-.09-.14-.13,0-.2.09a.17.17,0,0,0,.15,0s0,0,0,0l.08-.23a.1.1,0,0,0-.09,0Z" fill="#075b5d"></path><path d="M280.2,169.55a1.26,1.26,0,0,0,.07-.64c-.09,0,0,.1-.07.17a1.17,1.17,0,0,1-.21.17C279.89,169.35,280.1,169.56,280.2,169.55Z" fill="#075b5d"></path><path d="M284.32,162c.09-.17.29-.21.45-.31a.71.71,0,0,0-.52,0A.25.25,0,0,1,284.32,162Z" fill="#075b5d"></path><path d="M280.63,163.22c0-.12-.13-.09-.22,0s.15.27.23.25A.11.11,0,0,0,280.63,163.22Z" fill="#075b5d"></path><path d="M283.34,155.37l.2-.06.28-.13C283.67,155.09,283.44,155.25,283.34,155.37Z" fill="#075b5d"></path><path d="M278.41,170.34c-.12-.22-.19-.11-.37,0l.19.15Z" fill="#075b5d"></path><path d="M251,150.67c.13.15.21,0,.3,0s.08.16,0,.33l.57-.17c.06,0,.08-.13.14-.15s.08.08.15.06.2,0,.2-.1,0-.22-.06-.26-.13-.11-.23,0-.12.11-.2,0,.28-.36.34-.42-.11-.25,0-.33.33.11.44.07a.68.68,0,0,0,.43-.32l-.33-.18.57-.07c0-.24-.48-.25-.64-.3h.66c0-.24-.48-.2-.69-.2q-1,1-2,2.11C250.77,150.82,251,150.87,251,150.67Z" fill="#075b5d"></path><path d="M249.59,152c.11.14.37.2.43,0,.05.22.35.08.5.05l0-.24c.2,0,.09.22.24.27a.67.67,0,0,0,.36.07c.08,0,.45,0,.47-.11s.12-.17.29-.23a.49.49,0,0,0-.28-.11l.24-.18a1.15,1.15,0,0,0-1.09-.33c-.17.06-.31,0-.49,0h0q-.37.44-.72.9h.15S249.6,152.09,249.59,152Z" fill="#075b5d"></path><path d="M256.29,202l.3-.65c.05-.11-.14-.31-.17-.43a2.58,2.58,0,0,1,0-.55c.33.17.52.26.83,0,.07,0,0-.24.06-.36s0-.27,0-.47a1.41,1.41,0,0,0,.78,0c.32-.09.59-.08.79-.38.07-.1.25-.28.27-.41a2,2,0,0,0-.11-.54c-.06-.28-.6-.32-.52-.65.15,0,1.1.46,1.17.37l.91-1.17,1-1.28c.08-.1.06-.32.07-.45s0-.7.09-.76l1.2-.82c.13-.09.49,0,.65,0s.24-.24.33-.38c.21-.32.62-.73.65-1.13l.13-1.82a1.21,1.21,0,0,1,.31-.59l.85-1.23c.23-.34.22-.33.13-.75l-.14-.59s-.42-.05-.48-.06a5.52,5.52,0,0,0-1.06-.76l-1.31-.47-1.31-.47c-.08,0-.19-.24-.23-.31l-.61-.8c-.2-.26-.45-.8-.77-.88s-.93-.09-1.2-.35l-1.27-1.22a1.58,1.58,0,0,0-.82-.29l-1.63-.38c-.21,0-.59-.23-.8-.16l-.69.25c-.08,0-.4.08-.45.17-.16.28-.59.74-.57,1.08a1.2,1.2,0,0,0-.58-.46c-.28-.09-.42,0-.69.14-.44.18-1-.61-1-1.09,0-.1.1-.19.11-.29l.08-.53a.49.49,0,0,0-.35-.55,1.54,1.54,0,0,0-.4-.06c-.11,0-.19.08-.3.06a4.3,4.3,0,0,1-.78-.06c.08-.07.27-.29.22-.4s.15-.47,0-.48a.82.82,0,0,1,.09-.16.27.27,0,0,0,.07.24,2.23,2.23,0,0,1,.11-.42l-.05,0,0,0s.06-.07.1-.1-.07,0-.12-.06.24-.35.29-.46c.12-.29-.26-.21-.4-.23a1.8,1.8,0,0,0-.53.1c-.24.09-.22.36-.29.58a.47.47,0,0,1-.19.26s0,.11,0,.13a.66.66,0,0,1-.15.07s-.11-.09-.19-.08a1.05,1.05,0,0,0-.31.07l-.35.13c-.05,0-.14-.13-.2-.15-.28-.08-.35-.27-.52-.53a2.24,2.24,0,0,1-.37-1.36,2.34,2.34,0,0,1,.14-.62,1.07,1.07,0,0,0,.08-.28c0-.11-.16-.23-.16-.34,0-.37.62-.83.87-.93s.42-.25.58-.19.21.12.3.09.22,0,.36.15.18-.09.26.08c0-.06,0-.09,0-.18s.26.1.22.22a.1.1,0,0,0,.12-.12s-.19-.09-.22-.11c.33-.16-.11-.21-.23-.23.17-.14.75.05.78-.21.05.3.35.06.52.11a1.41,1.41,0,0,1,.31.2c.1.07.21,0,.32,0s.29.17.46.28,0,.41.07.6l.07-.06c0,.15,0,.22.08.35a2.07,2.07,0,0,1,.14.35s.19.19.23.23.18,0,.27-.06.08-.54,0-.7a5.9,5.9,0,0,0-.32-.87.88.88,0,0,1,0-.64,1.11,1.11,0,0,1,.56-.63,1,1,0,0,0,.23-.26c.08-.1.22-.07.27-.13s.14-.28.22-.32.12.06.17,0l.2-.11c-.1-.06-.19.07-.24-.07s.1,0,.15-.05l-.1-.08c.07,0,.32,0,.33-.09s-.18-.14-.3-.14c.14,0,.24,0,.27-.19s-.12-.14-.15-.25.07-.26,0-.33-.2-.12-.26-.2a.63.63,0,0,1,.23.12c-.07-.3-.14-.41.1-.59s0,.14,0,.16a1.41,1.41,0,0,0-.07.33c.15,0,.11.11.19.16a.86.86,0,0,0-.1.31h0a3.36,3.36,0,0,1,.26-.49c.08-.15-.13-.38-.14-.54,0,.14.25.21.18.33.1-.09.51-.63.23-.66.07-.12.27-.08.39-.09a.81.81,0,0,0,.36-.14h-.15l.06,0c-.18,0-.33.12-.52.14a1.18,1.18,0,0,1,.7-.21c.1,0,.07-.2.14-.18s.28.11.4,0a.47.47,0,0,0-.09-.1l0,.08c-.41,0-.11-.51,0-.68s0-.19.15-.23.24-.08.32-.25l.06.07c.07-.14.6,0,.5-.34.07,0,.18,0,.22,0s.09,0,.17,0,.32-.28.47-.24a.46.46,0,0,0-.11.21c.11-.08.28,0,.41,0-.1.09-.17.22-.28.13s0-.15-.12-.06-.66.37-.45.66c.06,0,.15.15.25.06s.26-.34.39-.45.09.11.18,0a.7.7,0,0,1,.21-.11l.58-.24s-.05-.09-.09-.12a.81.81,0,0,0,.47-.13c.12-.05-.08-.26-.21-.15,0-.15.15-.31,0-.38-.1.15-.38.41-.24.59a.32.32,0,0,1-.14,0l0-.11c-.21.15-.44.05-.68-.06l.05,0c-.16,0-.39-.21-.31-.43,0,0-.11,0-.16,0a.49.49,0,0,0,.18-.29.46.46,0,0,0-.28,0s-.16-.16-.22-.18c.15-.11.26.1.39,0s.38-.19.18-.33l.1,0c-.2-.5-1-.07-1.24.06s-.63.63-1,.83a4.46,4.46,0,0,0,.55-.65,2.63,2.63,0,0,1,.36-.38c.08-.06.38-.09.4-.19.08-.41.4-.3.7-.32a6,6,0,0,1,1,0,.76.76,0,0,0,.76-.26.74.74,0,0,1,.33-.27c.15,0,.28,0,.42-.05a1.06,1.06,0,0,0,.38-.23c.12-.18-.06-.23,0-.38s.14-.34,0-.39-.31-.16-.42,0c-.09-.12.08-.1,0-.25s-.23-.13-.33-.12a.2.2,0,0,0,.14.08,1,1,0,0,0-.39.11s0,.07-.1.1a.34.34,0,0,0-.2.13c-.07.09-.11-.17,0-.21s.38-.05.45-.19c-.11,0-.25.11-.35.07a3.35,3.35,0,0,1,.51-.15c.3,0,0-.18-.11-.28a.87.87,0,0,0-.56-.16c-.13,0,0-.11-.09-.21a1.18,1.18,0,0,0-.26-.21s-.19-.12-.2-.16.14-.22.14-.31-.27-.46-.35-.61-.37-.92-.69-.94l0-.22c-.14,0-.34.24-.32.38s-.1.37-.18.55c0,0-.1,0-.13-.08-.15.83-.89-.51-1.1.1-.12-.11.1-.27.18-.37s-.09,0-.13,0a.78.78,0,0,0,0-.45c0-.16,0-.2.11-.35a.67.67,0,0,0-.41-.12c-.2,0-.3-.11-.34-.28s-.28-.23-.37-.29-.24-.24-.44-.14-.61-.13-.94-.09-.28.08-.23.25a.74.74,0,0,1,0,.6c0,.15,0,.33.09.48s.06.25-.15.44-.14.16,0,.37a2.88,2.88,0,0,0,.37.39,1,1,0,0,1,0,1c-.17.24-.63.41-.86.56.07.11.24.28.26.41l.12.73c0,.23-.42.72-.63.46s-.6-.56-.58-.94,0-.54,0-.81c0-.08-.37-.08-.44-.08l-.59-.06c-.13,0-.34-.24-.45-.32a3.8,3.8,0,0,0-1-.52c-.13,0-.29-.14-.42-.11s-.32.16-.42-.12-.12-.54-.23-.65-.4-.1-.53-.13l.21-1a2.72,2.72,0,0,1,.47-.81s.13-.27.19-.27a.75.75,0,0,0,.45-.07c.16-.08,0-.22-.09-.28a.43.43,0,0,0-.43-.06l.08-.08-.39-.18.59.16c.31.1.33.08.6-.11.09-.06.19,0,.29,0s.19-.07.26-.11.26-.43.34-.56a2.36,2.36,0,0,1-.67-.09l-.74-.37a2.05,2.05,0,0,1,1,.17c.2.11.28.2.48.09a1.07,1.07,0,0,0,.3-.38l-.25-.15c.07-.16.26-.1.39-.11s0,.15.07.17l.27.06,0-.11.26.14-.17-.38c.11.1.21.29.35.2a2,2,0,0,0,.5-.31c.16-.2.09-.31-.05-.45a1.35,1.35,0,0,1-.28-.47c.09,0,.31,0,.37-.06s-.05-.23,0-.4a.61.61,0,0,1-.43-.26c-.08-.1-.41-.08-.53-.1s-.3-.09-.34.12.06.29.17.46c-.28.12-.28.11-.28.44,0,.07-.14.15-.18.19s-.07.15-.08.28c0,.44-.95-.37-.54-.6,0,0,0,.08,0,.12.2-.06.1-.25.06-.41s-.29-.2-.37-.25-.18.2-.19.27a.72.72,0,0,1-.17.4c-.17-.11-.14-.15-.09-.34s0-.19-.17-.31l.21-.14c-.14-.07-.26-.19-.4-.09s-.25,0-.39-.06L248,155c-.07-.09-.21-.2-.31-.32l-.45.72c.08,0,.14,0,.14.12a.66.66,0,0,0-.26.06l-.12.21a.45.45,0,0,0,0,.08l.28-.13c0,.11.07.21,0,.29s-.2.24-.35.27c-.36.06-.25.32-.16.61a3,3,0,0,1-.3-.18A35.44,35.44,0,0,0,242,174c0,.39,0,.78,0,1.17l.13.17s.15.15.14.21-.07.2,0,.24l.64.59a1.87,1.87,0,0,1,.31.38c.09.13.4.46.35.63s-.18.37,0,.55l.59.6a1.15,1.15,0,0,0,.35.14l.91.37c.37.15.78.44,1.17.32.17-.05.38-.2.52-.06l.66.65c.25.25.78.27,1.1.36s.59.42.89.76c.12.13.07.35.16.5s.41.32.57.43l.23.17s.09-.05.17,0,.39.28.44.13c.11.27.1.24.35.14,0-.05-.16-.2-.11-.24a1.35,1.35,0,0,1,.26-.21c.13-.07.13-.08.25,0s.19.07.13.29.35.33.31.51,0,.26,0,.27,0,.17,0,.3c.08.58-.19.82-.52,1.23l-.43.56a2,2,0,0,0-.15.61c-.07.3-.34.84-.18,1.13l.76,1.42.92,1.72a1.49,1.49,0,0,0,.48.64l.75.52c.13.09.42.21.5.35a2.26,2.26,0,0,1,.08.66,4.8,4.8,0,0,1,.09.74,6.57,6.57,0,0,1-.16.87l-.37,1.94-.61,3.19c-.08.43-.13.87-.17,1.31q1.14,1,2.37,2l.08,0C256.15,202.16,256.19,202.18,256.29,202ZM252,169a2.31,2.31,0,0,1-.63.37c-.25.09-.37.24-.67.21l0-.07-.22-.06a2.49,2.49,0,0,1,.27-.42c0,.1,0,0,.09.12a.24.24,0,0,0-.19.18c.14.07.21,0,.31-.12a.37.37,0,0,1,.37-.14c.13,0,.58-.1.58-.24C252,168.9,252,168.94,252,169Zm-.12-.42c.18,0,.41-.15.58-.07s.39-.18.53-.24l-.2.18c.24.1-.23.51-.46.3S251.48,169.09,251.87,168.58Zm-3.7-1.7.43-.19c.12-.05,0-.21.22-.24a.93.93,0,0,1,0,.11c.1,0,.08-.16.18-.22a.32.32,0,0,1-.06.17c.1-.06.21-.13.09-.23a.69.69,0,0,1,.33.11c.09,0,.19-.11.28,0s.16.39.48.33c-.08.22,0,.14.1.29s-.07.09,0,.15.08.09,0,.15.41.19.48.2.47.05.68.1.24.39.39.53c-.14-.08-.09.07-.11.07s-.23-.08-.31,0,0,0-.05-.06,0-.05,0-.09c-.14,0-.07-.2-.23-.11.23.11.07.29,0,.45s0,.22,0,.27l-.22.25c0-.1,0-.45-.16-.45s-.3.22-.33.12.12-.2.14-.21.08-.24,0-.34h.05c0-.18-.18-.13-.29-.24s-.39-.13-.24.07c-.17,0-.14.18-.23.27,0-.06,0-.12,0-.18-.09.2-.32.25-.26.57a1.05,1.05,0,0,1,0,.77c-.27.54-.4-.15-.42-.42a1.76,1.76,0,0,1,.11-.52c0-.13.15-.31.13-.43-.11.07-.17.32-.3.29a1.55,1.55,0,0,1,.33-.56v.09s.08,0,.13-.07l-.05.08,0,0a.39.39,0,0,1,.59-.11c0-.13.16-.07.27-.05-.06-.06-.09-.18-.16-.21s-.22,0-.18-.15a4.47,4.47,0,0,1-.58.15c-.11-.06-.18,0-.25-.12s-.18-.1-.29,0a.41.41,0,0,1,.24-.27c-.24-.19-.7.46-1,.29l0-.09c-.13,0-.26.13-.4.06Zm-2.32-2c-.07-.13-.38-.44-.12-.5-.23-.06-.27,0-.19-.31s.26-.07.38,0c-.15-.11-.15-.16,0-.35l.07.06a.2.2,0,0,0-.13.15c.07,0,.08,0,.12-.06h0c-.14.08.18.78.24.95a1,1,0,0,0,.18.36c.08.07,0,.21,0,.33l-.08,0c0,.08-.08.24-.12.1a.34.34,0,0,1,.1-.39.53.53,0,0,0-.12.06c0-.05.1-.19.06-.21s-.12,0-.15.09c0-.1,0-.23-.06-.27a.11.11,0,0,1,0,.06l0-.1c-.08,0-.07,0-.09.12Z" fill="#075b5d"></path><path d="M248.41,153.83c0,.06,0,.43.08.43.35,0,.57,0,.83.27l-.76-.07a1.12,1.12,0,0,0,.47.44c.14.08.21,0,.33,0s.07,0,.22.18a.84.84,0,0,0,.36.1,2.71,2.71,0,0,1,.79,0l.24.09s.08-.11.12-.1.15.18.28.13l-.29-.27a1.76,1.76,0,0,0,1,.11c-.07-.16-.09-.24-.26-.29.2-.19.19.11.33.18s.19-.06.2,0l0,.25c.18-.19.49.23.64.35-.27.08-.32,0-.32.34l.37-.14c.16-.06.15-.08.24.08s.39.15.52.38l.25.46c0,.07,0,.11-.1.17l-.6.6c.06,0,.32.17.27.3s-.38.11-.44.13a2,2,0,0,1-.75-.06c0,.16-.18.2-.26.34s.11.31.22.3.36,0,.49-.09.28,0,.43,0c0,0,0-.11,0-.15s.16,0,.16.15c.26-.17.25,0,.42.24s.26.13.41.21l-.26.13a.7.7,0,0,0,.41.15l-.05.08.49.13c.07,0,.06.17.18.2l1,.25c0-.15.07-.21-.05-.3l-.36-.26c-.07-.05-.25,0-.3-.12l-.2-.34.35.15c0-.05,0-.12-.05-.17l.59.37c.11.07.29.31.36.28l-.08-.2s.08,0,.12,0c.07-.18-.17-.22-.08-.39l.16.21a1.52,1.52,0,0,0-.05-.43c-.07-.11-.2-.06-.23-.21s0-.22-.17-.29-.22-.15-.26.06l-.13-.39c-.05-.15-.08-.09-.22,0l-.09-.27.27,0c0-.18-.2-.16-.09-.33s.16-.09.28,0,.2.26.31.28.25-.09.33-.12c.06.2-.13.21-.26.27a1.54,1.54,0,0,0,.63.5,1.37,1.37,0,0,0,0-.56c.24.16.33,0,.58-.09l-.25-.12c.07-.09.24,0,.35,0,0-.23.11-.37-.11-.46a1.59,1.59,0,0,0-.53,0l.14-.21c-.21,0-.31,0-.46-.19a.73.73,0,0,0-.35-.26c-.35-.13-.7-.27-1-.42l.29,0,0-.27.41.08c-.08-.22-.06-.22-.27-.18a.64.64,0,0,1-.33-.08.6.6,0,0,1,.47-.12c0-.17-.18-.26-.3-.33,0,.17-.2.21-.33.27,0-.18-.09-.15-.21-.17.15,0,.41-.05.47-.24-.14-.07-.81-.51-.9-.32s-.3.31-.37.11.29-.22.36-.26c-.09-.29-.46-.25-.67-.17s-.42-.43-.54-.54a1,1,0,0,0-.67-.26c-.1,0-.31,0-.39.07s-.22.26-.28.23-.19-.13-.37,0-.24.1-.15-.07.13-.2,0-.4-.12-.13-.2-.24,0-.28-.18-.29a1,1,0,0,0-.36,0,3.74,3.74,0,0,1-.73.25l.07-.28a1.42,1.42,0,0,0-.91.11,1,1,0,0,0-.22.13l-.31.43,0,0C248.54,153.46,248.39,153.71,248.41,153.83Z" fill="#075b5d"></path><path d="M283.73,160.89l0-.11h.05C283.74,160.57,283.46,160.73,283.73,160.89Z" fill="#075b5d"></path><path d="M242.21,176.68c0-.1-.09-.21-.17-.28,0,.14,0,.29,0,.43S242.19,176.79,242.21,176.68Z" fill="#075b5d"></path><path d="M251.06,167.77l0,0,0,0c.05-.07.08-.1.05-.17l0,0a.13.13,0,0,0-.2-.08c-.11,0-.15-.06-.26,0l.09,0C250.79,167.73,251,167.83,251.06,167.77Z" fill="#075b5d"></path><path d="M248.18,167.2l0,.09c.32.17.77-.48,1-.29a.41.41,0,0,0-.24.27c.11-.06.22-.07.29,0s.15.05.25.12a4.47,4.47,0,0,0,.58-.15c0,.14.09.11.18.15s.1.15.16.21c-.11,0-.23-.08-.27.05a.39.39,0,0,0-.59.11l0,0,.05-.08s-.08,0-.13.07v-.09a1.55,1.55,0,0,0-.33.56c.13,0,.19-.22.3-.29,0,.12-.1.3-.13.43a1.76,1.76,0,0,0-.11.52c0,.27.15,1,.42.42a1.05,1.05,0,0,0,0-.77c-.06-.32.17-.37.26-.57,0,.06,0,.12,0,.18.09-.09.05-.26.23-.27-.15-.2.15-.16.24-.07s.25.06.29.24h-.05c.06.1.09.27,0,.34s-.16.16-.14.21.27-.13.33-.12.14.35.16.45l.22-.25c0-.05,0-.2,0-.27s.22-.34,0-.45c.17-.08.09.13.23.11,0,0,0,.06,0,.09s0,0,.05.06.22,0,.31,0,0-.15.11-.07c-.16-.14-.14-.47-.39-.53s-.46-.05-.68-.1-.52-.14-.48-.2,0-.1,0-.15,0-.09,0-.15-.18-.07-.1-.29c-.32.06-.32-.08-.48-.33s-.19,0-.28,0a.69.69,0,0,0-.33-.11c.12.1,0,.17-.09.23a.32.32,0,0,0,.06-.17c-.1.05-.08.17-.18.22a.93.93,0,0,0,0-.11c-.17,0-.1.19-.22.24l-.43.19-.39.38C247.92,167.33,248,167.24,248.18,167.2Zm2.68.44a.13.13,0,0,1,.2.08l0,0c0,.07,0,.1-.05.17l0,0,0,0c-.1.07-.27,0-.37-.09l-.09,0C250.71,167.58,250.75,167.68,250.86,167.64Zm-.29,0v0a.37.37,0,0,1-.16,0l.06-.06Zm-.15-.11,0,.07-.07-.07S250.35,167.47,250.42,167.51Z" fill="#075b5d"></path><path d="M250.42,167.51c-.07,0-.08,0-.1,0l.07.07Z" fill="#075b5d"></path><path d="M250.57,167.67v0l-.1-.05-.06.06A.37.37,0,0,0,250.57,167.67Z" fill="#075b5d"></path><path d="M280,170s-.08.14-.09.19.08.07.08.1-.15.16,0,.28.19.1.21-.05.14,0,.16-.16l.06-.49c0-.33-.34-.13-.43-.07l-.1,0C279.82,170,280,169.92,280,170Z" fill="#075b5d"></path><path d="M292.69,147.5l-.46.31a2,2,0,0,0,.75.12l-.07-.25.91-.21c-.16-.11-.27-.21-.47-.15a1.15,1.15,0,0,1-.56.09,1.83,1.83,0,0,0-1.08.15l.42.11Z" fill="#075b5d"></path><path d="M294,154.31a1.1,1.1,0,0,0,.72.38c.25,0,.76.17,1,0-.34-.24-.63-.44-.64-.92s.35-.7.57-1,.24-.32.37-.47a2.1,2.1,0,0,1,.51-.33,3.36,3.36,0,0,1,.79-.5c.38-.12.76-.22,1.14-.36.19-.06.95-.2,1-.54s-.74-.23-.88-.12a2.64,2.64,0,0,1-1,.41,2.21,2.21,0,0,0-.9.16,3.17,3.17,0,0,0-.86.36,8.15,8.15,0,0,0-.68.64l-.44.49c-.11.13,0,.21,0,.39s-.31.25-.36.29,0,.16-.12.35-.29.08-.3.27S293.81,154.12,294,154.31Z" fill="#075b5d"></path><path d="M294.67,147.77c-.36-.13-.37-.11-.67.13l.43.06Z" fill="#075b5d"></path><path d="M295.84,147.31a1.93,1.93,0,0,0-.64-.15c-.32,0-.43,0-.64.23l.62.17A1.29,1.29,0,0,0,295.84,147.31Z" fill="#075b5d"></path><path d="M296,146.93l-.25-.22.51-.13c-.28-.05-.39-.11-.63.06l-.57.39.52.07Z" fill="#075b5d"></path><path d="M282.34,156.23a.48.48,0,0,0-.11,0,.48.48,0,0,0,0,.17l.3-.31C282.44,156.06,282.38,156.13,282.34,156.23Z" fill="#075b5d"></path><path d="M283.94,155h-.15l0,.1C283.91,155.16,284,155.12,283.94,155Z" fill="#075b5d"></path><path d="M284.18,155.05a1,1,0,0,0,.72-.39c-.14,0-.15.13-.26.19a1.12,1.12,0,0,1-.37,0C284.33,155,284.27,155,284.18,155.05Z" fill="#075b5d"></path><path d="M284.62,154.82c.07-.07.15-.11.16-.21-.1.06-.08.12-.21.08a.52.52,0,0,0-.27,0C284.34,154.88,284.47,154.83,284.62,154.82Z" fill="#075b5d"></path><path d="M296.19,154.85,296,155c.05.13.45.47.6.34S296.26,154.9,296.19,154.85Z" fill="#075b5d"></path><path d="M299.84,152.85c-.2,0-.15.11-.17.33l.54-.1A.32.32,0,0,0,299.84,152.85Z" fill="#075b5d"></path><path d="M292.86,155.89c.1.1.42-.17.5-.23a.74.74,0,0,0-.4-.21C292.72,155.55,292.65,155.68,292.86,155.89Z" fill="#075b5d"></path><path d="M283.33,162.26c-.11-.12,0-.19.06-.29-.32-.08-.35.25-.33.5A.63.63,0,0,1,283.33,162.26Z" fill="#075b5d"></path><path d="M280.95,163.37c.13,0,.11.1.14.24,0-.15,0-.32.18-.33,0,0-.06-.08-.1-.1.44-.09-.28-.49-.07-.07-.09,0-.13-.05-.08-.14h-.11a.13.13,0,0,1-.08.17C280.81,163.22,280.83,163.38,280.95,163.37Z" fill="#075b5d"></path><path d="M296.46,148c-.07-.15-.22-.05-.33,0l.15.12Z" fill="#075b5d"></path><path d="M296,147.63c-.08,0-.91,0-.83.27s.64.06.84,0c0,0,0-.08-.08-.11l.3,0Z" fill="#075b5d"></path><path d="M296.36,147.65c.12,0,.18,0,.25.06s.45-.07.57-.2-.16-.37-.31-.34a3.06,3.06,0,0,0-.67.25C296.25,147.54,296.25,147.66,296.36,147.65Z" fill="#075b5d"></path><path d="M297.47,147.49l.63-.14c.2,0,.13-.13.12-.34-.08,0-.25,0-.31,0s-.06.2-.12.23-.33-.15-.46.1A1,1,0,0,0,297.47,147.49Z" fill="#075b5d"></path><path d="M287,199.87c-14.33-2.77-24.35-15-28-28.65-2.85-10.59-1.59-22.16,5.38-30.31a35.59,35.59,0,1,0,38.19,58.3A34.24,34.24,0,0,1,287,199.87Z" fill="#6dc3da" opacity="0.6" style="mix-blend-mode: multiply;"></path><path d="M58.4,86.12,189.32,10.77a4,4,0,0,1,6,3.15l8.4,104.4a4,4,0,0,1-2,3.8L73.58,194.7a4,4,0,0,1-5.95-3L56.42,90A4,4,0,0,1,58.4,86.12Z" fill="#3694ef"></path><path d="M313.38,72c-.43.43-.84.88-1.26,1.31a30.13,30.13,0,0,1,1.67-4.17c.65-1.33-1.34-2.5-2-1.16A34.3,34.3,0,0,0,310,72.3l.73-6.44c.17-1.47-2.14-1.46-2.31,0-.25,2.18-.8,4.26-1,6.44-.08,0-.09-.06-.09-.07l-.08,0c.07-1.66-.07-3.26.1-4.91.14-1.48-2.16-1.47-2.31,0-.16,1.64-.27,3.27-.34,4.91l-.54,2.89c-.81-2.13-2-4.37-3-3.32-.84.8.11,2.67.43,3.47,1.14,2.81,2.12,4.94,1.78,8.06-.07.65.81.72,1.08.23,0,0,0,.08,0,.12a1,1,0,0,0,1.1.81,1.13,1.13,0,0,0,1.42.45A.59.59,0,0,0,308,85a32.31,32.31,0,0,1,1.9-4.64c.52-1,1.16-2,1.58-3.07,1.16-1.22,2.31-2.45,3.51-3.63A1.15,1.15,0,0,0,313.38,72Z" fill="#fdba45"></path><path d="M307.31,72.23s0,0,0,0Z" fill="#fdba45"></path><path d="M283.44,101.35s10.46-1.7,12.56-5.49,5.6-18.15,5.6-18.15l10.35,3s-1.82,32.78-16,39.4" fill="#ff9a22"></path><g opacity="0.7"><path d="M290.46,213.53l4.34-2.11s.34-3.81-1.16-4.58S290.46,213.53,290.46,213.53Z"></path><path d="M301,202.7s.6,9.36,1.24,10.31,9,5.32,9.65,7-9.28-.14-12.56-1-6.32-2.46-6.44-3.69,1.21-7.51,0-7.37-2.46,5.57-2.46,5.57l-2.88-1.71L294,189.91"></path></g><g opacity="0.7"><path d="M310.18,204.21l4.34-2.11s.34-3.81-1.16-4.58S310.18,204.21,310.18,204.21Z"></path><path d="M320.74,193.38s.6,9.36,1.24,10.31,9,5.32,9.65,7-9.28-.14-12.56-1-6.32-2.46-6.44-3.69,1.21-7.51,0-7.37-2.46,5.57-2.46,5.57l-2.88-1.71,6.37-21.91"></path></g><path d="M288.48,123.17c-1.52,1.47-5.08,21.85-2.71,31.63s26.15,13.87,26.15,13.87l-5.58,24.93s9.11,6.88,17.8,4.06c3.14-1,10.3-36.82,7.53-41.81s-34.59-22.25-34.59-22.25" fill="#fff0d7"></path><path d="M269.72,130.6c-1.52,1.47-5.9,12.92,0,27,3.9,9.29,25.11,15.83,25.11,15.83L287.58,201s9.49,7.87,17.8,4.06,10.64-37.74,7.87-42.73-30.36-22.55-30.36-22.55" fill="#fff0d7"></path><path d="M297.42,127.76c-.71-8-1-16.13-1-24.21-6.22-4.74-19.1-.36-19.1-.36s-15.73,6.53-11.34,28.8c3.09,15.69,18.64,17.42,18.64,17.42s10.19-6.41,9-8.56l-13.83-7.21,15.68-7.93Z" fill="#ff9a22"></path><line x1="322.35" y1="129.24" x2="320.93" y2="127.85" fill="#fff7f0"></line><path d="M296,120.06s.38,14.14-.46,15.69-15.78,7.9-15.78,7.9L270.47,132Z" fill="#ff9a22"></path><path d="M288.37,95.86s2.63,5.74,1.62,7.8-6.55.65-6.55.65" fill="#1b6333"></path><path d="M288.84,92.92s.17,11.65-4.63,12.91-7.32-4.66-7.32-4.66-1-7.87.58-9.52S286.31,89.62,288.84,92.92Z" fill="#fdba45"></path><path d="M290.68,91.63s-3.22,4.56-5.13,5.72-4.06.5-4.73,2.07,1.72,10.95-.47,12.69-6.46-3.32-8.35-.83-.87,7-3.82,8-6.44-3.57-3.62-7.21,3.09-5.43,1.48-6.63c-2.41-1.79.08-8.38,2.9-9.62s3.58-7.63,8.64-9.21S289.6,88,290.68,91.63Z" fill="#1b6333"></path><path d="M294.84,115.58q0,9.79-.39,19.57c0,.74,1.12.74,1.15,0q.4-9.78.39-19.57A.58.58,0,0,0,294.84,115.58Z" fill="#f26250"></path><path d="M293.41,140.45a26.26,26.26,0,0,1-14.8-18.3c-.16-.72-1.27-.42-1.11.31a27.34,27.34,0,0,0,15.33,19C293.5,141.76,294.09,140.76,293.41,140.45Z" fill="#f26250"></path><path d="M331.67,99.17S298.35,97.06,296.23,98s-3,4.51-2.18,9.43,16.69,24.71,16.69,24.71" fill="#3694ef"></path><path d="M341.44,109.86c-.1-.34-3.49-15.84-18.88-9.24-13.91,6-14.33,23.69-13.38,28,.77,3.53,4.37,8.34,11.34,10.08" fill="#cc6c6d"></path><ellipse cx="326.89" cy="119.87" rx="19.95" ry="14.2" transform="translate(86.95 372.18) rotate(-66.58)" fill="#f9847f"></ellipse><path d="M311.95,120.77,327,124.72l3.3-7-13.64-8.49S312.77,115.19,311.95,120.77Z" fill="#fff"></path><ellipse cx="328.46" cy="121.11" rx="3.89" ry="3.12" transform="translate(71.68 359.06) rotate(-63.06)" fill="#f7d600"></ellipse><path d="M300.31,153.22V100a2.21,2.21,0,0,0-2.21-2.21h-2.17a2.21,2.21,0,0,0-2.21,2.21v52.13a4.11,4.11,0,0,0,2.23,3.63l.07,0A2.92,2.92,0,0,0,300.31,153.22Z" fill="#3694ef"></path><path d="M359.12,100.39l-6.77,6.77c-2.35,2.35,1.3,6,3.65,3.65l6.77-6.77C365.13,101.69,361.48,98,359.12,100.39Z" fill="#f7d600"></path><path d="M373,119.05h-12.9c-3.32,0-3.33,5.16,0,5.16H373C376.28,124.21,376.28,119.05,373,119.05Z" fill="#f7d600"></path><path d="M361,138.22l-6.13-5.8c-2.41-2.28-6.07,1.36-3.65,3.65l6.13,5.8C359.8,144.15,363.46,140.51,361,138.22Z" fill="#f7d600"></path><path d="M299.44,138.17a1.26,1.26,0,0,0-2.05-.71,15.35,15.35,0,0,1-4.63,3.31,1.16,1.16,0,0,0-.47.39h-.06c-.87,2.4-4.63,5-6,7.19.24,0,3.23-.3,3.46-.31a37.53,37.53,0,0,0,4.75,3,2.73,2.73,0,0,0,2.47,0,6.89,6.89,0,0,0,1.07.13,2.59,2.59,0,0,0,2.48-1.5,1.37,1.37,0,0,0,1-.28,1.31,1.31,0,0,0,1.21-.75c.62-1.27.57-2.71-.65-3.46a2.63,2.63,0,0,0-1.38-3,8,8,0,0,0-2.56-.89A3.25,3.25,0,0,0,299.44,138.17Z" fill="#fdba45"></path><path d="M187.54,243.88s-4.25,29,14,29.13c17.56.1,13-29.48,13-29.48S201.83,232.42,187.54,243.88Z" fill="#3694ef"></path><path d="M187.54,243.88s-4.25,29,14,29.13c17.56.1,13-29.48,13-29.48S201.83,232.42,187.54,243.88Z" opacity="0.15"></path><ellipse cx="201.02" cy="243.88" rx="13.51" ry="5.58" fill="#3694ef"></ellipse><ellipse cx="201.02" cy="243.88" rx="13.51" ry="5.58" opacity="0.7"></ellipse><path d="M179.76,201.49s-9.42-2.26-5.8-10.1C174,191.39,180.43,192.67,179.76,201.49Z" fill="#8bc91f"></path><path d="M185.48,209.39s-1.3-6.69,3.93-9.4C189.41,200,193.61,207,185.48,209.39Z" fill="#8bc91f"></path><path d="M191.35,219.66s-1.56-8,4.7-11.24C196,208.41,201.08,216.8,191.35,219.66Z" fill="#8bc91f"></path><path d="M195.9,230.84s-1.56-8,4.7-11.24C200.6,219.59,205.63,228,195.9,230.84Z" fill="#8bc91f"></path><path d="M184.91,209.57s-3.32-6-9.06-4.65C175.85,204.92,177.16,213,184.91,209.57Z" fill="#8bc91f"></path><path d="M190.86,219.9s-4.25-7-11.05-5.13C179.81,214.77,181.76,224.36,190.86,219.9Z" fill="#8bc91f"></path><path d="M195.38,230.94s-5-6.46-11.55-3.88C183.83,227.05,186.82,236.37,195.38,230.94Z" fill="#8bc91f"></path><path d="M198.9,249.52H199a6.51,6.51,0,0,1,1.32.1.65.65,0,0,0,0-.13,96.54,96.54,0,0,0-20.3-49c-.59-.74-1.62.3-1,1a94.77,94.77,0,0,1,19.88,48Z" fill="#42352f"></path><path d="M221.19,214.27s8.08-1.94,5-8.66C226.16,205.61,220.61,206.71,221.19,214.27Z" fill="#8bc91f"></path><path d="M216.27,221.05s1.12-5.74-3.37-8.06C212.91,213,209.3,219,216.27,221.05Z" fill="#8bc91f"></path><path d="M211.24,229.86s1.34-6.87-4-9.64C207.21,220.22,202.9,227.41,211.24,229.86Z" fill="#8bc91f"></path><path d="M207.33,239.45s1.34-6.87-4-9.64C203.31,229.81,199,237,207.33,239.45Z" fill="#8bc91f"></path><path d="M216.76,221.21s2.85-5.11,7.77-4C224.53,217.22,223.41,224.14,216.76,221.21Z" fill="#8bc91f"></path><path d="M211.66,230.07s3.65-6,9.48-4.4C221.14,225.67,219.47,233.89,211.66,230.07Z" fill="#8bc91f"></path><path d="M207.78,239.54s4.28-5.54,9.91-3.33C217.69,236.2,215.13,244.2,207.78,239.54Z" fill="#8bc91f"></path><path d="M220.93,213.42a82.78,82.78,0,0,0-16.49,36c.43-.07.87-.13,1.3-.17a81.29,81.29,0,0,1,16.08-34.94C222.32,213.68,221.43,212.78,220.93,213.42Z" fill="#42352f"></path><path d="M113.41,114.89,111.08,84a1.52,1.52,0,0,0-2.26-1.3L75.19,103a1.48,1.48,0,0,0-.74,1.3l3.08,28.46a1.52,1.52,0,0,0,2.26,1.3l32.88-17.86c1.7-.92.18-3.51-1.51-2.59L78.27,131.45l2.26,1.3-1.92-17.67c-.3-2.78.05-7.14-1.05-9.72-.66-1.55.41-.24-.74.16a10.71,10.71,0,0,0,1.78-1.08l31.74-19.11L108.08,84l2.32,30.86C110.55,116.8,113.55,116.82,113.41,114.89Z" fill="#fff"></path><path d="M75.55,105.73q6,.9,12.11,1.64c3,.36,8.73,2.05,11.47.15,3.07-2.14,4.9-8.07,6.45-11.27q2.75-5.69,5.3-11.47c.56-1.28-.65-2.9-2.05-2.05L75.19,103a1.5,1.5,0,0,0,1.51,2.59l33.63-20.26-2.05-2.05q-2,4.61-4.2,9.17c-1.68,3.54-3.39,9.24-6.25,12-1.88,1.8-7.5.28-10.18,0q-5.67-.68-11.32-1.53C74.46,102.56,73.64,105.45,75.55,105.73Z" fill="#fff"></path><g opacity="0.82"><path d="M75.55,105.73q6,.9,12.11,1.64c3,.36,8.73,2.05,11.47.15,3.07-2.14,4.9-8.07,6.45-11.27q2.75-5.69,5.3-11.47c.56-1.28-.65-2.9-2.05-2.05L75.19,103a1.5,1.5,0,0,0,1.51,2.59l33.63-20.26-2.05-2.05q-2,4.61-4.2,9.17c-1.68,3.54-3.39,9.24-6.25,12-1.88,1.8-7.5.28-10.18,0q-5.67-.68-11.32-1.53C74.46,102.56,73.64,105.45,75.55,105.73Z" fill="#fff"></path></g><path d="M82.58,149l34.57-18.71c1.7-.92.19-3.51-1.51-2.59L81.07,146.37c-1.7.92-.19,3.51,1.51,2.59Z" fill="#fff"></path><path d="M84.35,158.32l34.57-18.71c1.7-.92.19-3.51-1.51-2.59L82.84,155.73c-1.7.92-.19,3.51,1.51,2.59Z" fill="#fff"></path><path d="M84.35,166.67,118.92,148c1.7-.92.19-3.51-1.51-2.59L82.84,164.08c-1.7.92-.19,3.51,1.51,2.59Z" fill="#fff"></path><path d="M119.88,84.77l34.57-18.71c1.7-.92.19-3.51-1.51-2.59L118.37,82.18c-1.7.92-.19,3.51,1.51,2.59Z" fill="#fff"></path><path d="M121.65,94.13l34.57-18.71c1.7-.92.19-3.51-1.51-2.59L120.13,91.54c-1.7.92-.19,3.51,1.51,2.59Z" fill="#fff"></path><path d="M121.65,102.48l34.57-18.71c1.7-.92.19-3.51-1.51-2.59L120.13,99.89c-1.7.92-.19,3.51,1.51,2.59Z" fill="#fff"></path><path d="M123.58,115l34.57-18.71c1.7-.92.19-3.51-1.51-2.59l-34.57,18.71c-1.7.92-.19,3.51,1.51,2.59Z" fill="#fff"></path><path d="M125.35,124.32l34.57-18.71c1.7-.92.19-3.51-1.51-2.59l-34.57,18.71c-1.7.92-.19,3.51,1.51,2.59Z" fill="#fff"></path><path d="M127.5,134.94l34.57-18.71c1.7-.92.19-3.51-1.51-2.59L126,132.34c-1.7.92-.19,3.51,1.51,2.59Z" fill="#fff"></path><path d="M127.5,144.29l34.57-18.71c1.7-.92.19-3.51-1.51-2.59L126,141.7c-1.7.92-.19,3.51,1.51,2.59Z" fill="#fff"></path><polygon points="220.57 123.67 216.25 66.24 153.65 103.94 159.39 156.91 220.57 123.67" fill="#ffb3a6"></polygon><path d="M153.65,103.94s37,5.54,40.82,4.25,21.78-42,21.78-42Z" fill="#3694ef"></path><path d="M153.65,103.94s37,5.54,40.82,4.25,21.78-42,21.78-42Z" fill="#124577" opacity="0.82"></path><polygon points="244.85 144.27 240.52 86.84 177.93 124.54 183.66 177.51 244.85 144.27" fill="#ffb3a6"></polygon><path d="M177.93,124.54s37,5.54,40.82,4.25,21.78-42,21.78-42Z" fill="#3694ef"></path><path d="M177.93,124.54s37,5.54,40.82,4.25,21.78-42,21.78-42Z" fill="#124577" opacity="0.82"></path><g opacity="0.6"><path d="M195.73,19.29l-.43-5.37a4,4,0,0,0-6-3.15L58.4,86.12a4,4,0,0,0-2,3.9l1,8.86c2-1.67,138.33-79.59,138.33-79.59Z" fill="#124577"></path></g><g opacity="0.72"><ellipse cx="62.16" cy="90.28" rx="1.39" ry="2.25" fill="#fff" opacity="0.72"></ellipse><ellipse cx="66.55" cy="87.71" rx="1.39" ry="2.25" fill="#fff" opacity="0.72"></ellipse><ellipse cx="70.38" cy="85.77" rx="1.39" ry="2.25" fill="#fff" opacity="0.72"></ellipse></g></g></g></svg>