<svg id="Layer_2" data-name="Layer 2" xmlns="http://www.w3.org/2000/svg" xmlns:xlink="http://www.w3.org/1999/xlink" viewBox="0 0 400 300" width="406" height="306" class="illustration styles_illustrationTablet__1DWOa"><defs><linearGradient id="linear-gradient" x1="170.53" y1="251.58" x2="196.71" y2="232.89" gradientUnits="userSpaceOnUse"><stop offset="0" stop-color="#0031bf" stop-opacity="0"></stop><stop offset="1" stop-color="#0f0013"></stop></linearGradient><linearGradient id="linear-gradient-2" x1="51.28" y1="192.84" x2="71.04" y2="177.64" xlink:href="#linear-gradient"></linearGradient><linearGradient id="linear-gradient-3" x1="277.48" y1="206.3" x2="314.59" y2="179.79" xlink:href="#linear-gradient"></linearGradient></defs><title>PP_</title><path d="M196.24,288.6,23.74,186.65c-5.49-3.08-10.2-8.15-4.85-11.46L192,75.41c2.6-1.61,6.54-2.66,9.18-1.13L382.28,179.37c5.49,3.19,6.48,12.1,1,15.29L219,288.44A22.94,22.94,0,0,1,196.24,288.6Z" fill="#4444a5"></path><path d="M198,251.56a29.84,29.84,0,0,0,4.38-12.1l-21.35-15.33L147.26,244l36.66,22.14C188.76,261.47,194.29,257.2,198,251.56Z" fill="url(#linear-gradient)"></path><rect x="297.29" y="172.37" width="6.03" height="23.36" transform="translate(600.62 368.09) rotate(-180)"></rect><path d="M270.35,202.3a2.22,2.22,0,0,1-.11-1.4c.55-2.41,4.11-2.78,6-3.32q3.82-1.08,7.65-2.13l6.58-1.79c.37-.1,2.38-.94,2.72-.73l-17-10.24a2.4,2.4,0,0,1-.64-3.54,2.76,2.76,0,0,1,3.43-.74l19.42,10h1.83l10-11.25a3.53,3.53,0,0,1,4.25-.81,3,3,0,0,1,1,4.48l-8.77,11,23.12,1.74a2.64,2.64,0,0,1,2.41,3.05,2.5,2.5,0,0,1-2.71,2.1l-24.78-2.36,3.4,11a3.18,3.18,0,0,1-2.68,4.1l-.19,0a5,5,0,0,1-5.37-3.5l-3.4-10.88-23.23,6.57A2.49,2.49,0,0,1,270.35,202.3Z"></path><path d="M329.84,193.55l-23.12-1.74,8.77-11a3,3,0,0,0-1-4.48,3.53,3.53,0,0,0-4.25.81l-7,7.85V172.37h-6v15.43l-18.24-9.38a2.76,2.76,0,0,0-3.43.74,2.4,2.4,0,0,0,.64,3.54l17,10.24c-.35-.21-2.35.63-2.72.73l-6.58,1.79q-3.83,1.05-7.65,2.13c-1.91.54-5.47.91-6,3.32a2.22,2.22,0,0,0,.11,1.4,2.49,2.49,0,0,0,2.95,1.33l23.23-6.57,3.4,10.88a5,5,0,0,0,5.37,3.5l.19,0a3.18,3.18,0,0,0,2.68-4.1l-3.4-11,24.78,2.36a2.5,2.5,0,0,0,2.71-2.1A2.64,2.64,0,0,0,329.84,193.55Z"></path><path d="M299.73,129.44s-4.94-43.64-4.95-54.12,13-14.84,17.83-15.06,20.3,8.51,29.62,15.06,7,14.19,7,14.19-5.67,48.23-7.42,56.74-12.68,11.51-12.68,11.51L323,159.32" fill="#68e1fd"></path><path d="M299.86,129.44s-5.06-43.64-5.07-54.12,13.14-14.84,17.95-15.06,20.3,8.51,29.62,15.06,7,14.19,7,14.19-5.67,48.23-7.42,56.74-12.68,11.51-12.68,11.51l-6.13,1.56" opacity="0.49"></path><path d="M275.86,128,278,142.61l-4.76,3s-3.25-18.71-3.25-20.91" fill="#68e1fd"></path><path d="M328.45,162.17s4.92-3.9,6.66-12.41S342.53,93,342.53,93s2.28-7.64-7-14.19-24.82-15.28-29.62-15.06S294.28,67.49,294.29,78s-1.3,55-1.3,55" fill="#68e1fd"></path><path d="M267.54,145.63c0,3.91-.3,5.75,0,9.65s1.92,5.87,4.76,8.2c5.3,4.36,16.9,11.68,16.9,11.68s7.67,6.16,17,2.55c6.52-2.51,16.46-9,21.91-12.64a8.87,8.87,0,0,0,3.9-7.36v-5.06" fill="#68e1fd"></path><path d="M329.6,148.65l-27.38-16.45a13,13,0,0,0-13-.23l-18.8,10.42a5.61,5.61,0,0,0-.52,9.48l21.9,15.48a18,18,0,0,0,19.63.78l18.13-10.77A5.08,5.08,0,0,0,329.6,148.65Z" fill="#68e1fd"></path><path d="M316,172.81s-4.65-.49-5.81-3-4-22.74-4-22.74l8.08,1.67" fill="#68e1fd"></path><path d="M314.89,150.5s2.18,16.58,4,18,12.46-7.31,12.46-7.31l2.39-21.41,3.11-1.63s-2,21.48-2.73,24S318.55,173.69,316,172.81s-5.81-24.19-5.81-24.19" fill="#68e1fd"></path><path d="M336.81,135.84l0,2.32a2.69,2.69,0,0,1-1.4,2.4L314.09,152.2a2.69,2.69,0,0,1-2.8-.14l-4-2.73a2.69,2.69,0,0,1-1.17-2.22v-2.2" fill="#68e1fd"></path><path d="M335.84,133.17l-3-2.29a2.64,2.64,0,0,0-2.82-.25l-22.51,11.66a2.64,2.64,0,0,0-.18,4.59l2.8,1.74a4.06,4.06,0,0,0,4,.15l21.29-11.17A2.64,2.64,0,0,0,335.84,133.17Z" fill="#68e1fd"></path><path d="M275.86,128,278,142.61l-4.76,3s-3.25-18.71-3.25-20.91"></path><path d="M326.81,159s6.56-.74,8.31-9.25S342.53,93,342.53,93s2.28-7.64-7-14.19-24.82-15.28-29.62-15.06S294.28,67.49,294.29,78s-1.3,55-1.3,55" opacity="0.22"></path><path d="M267.54,145.63c0,3.91-.3,5.75,0,9.65s1.92,5.87,4.76,8.2c5.3,4.36,16.9,11.68,16.9,11.68s7.67,6.16,17,2.55c6.52-2.51,16.46-9,21.91-12.64a8.87,8.87,0,0,0,3.9-7.36v-5.06" opacity="0.28"></path><path d="M329.6,148.65l-27.38-16.45a13,13,0,0,0-13-.23l-18.8,10.42a5.61,5.61,0,0,0-.52,9.48l21.9,15.48a18,18,0,0,0,19.63.78l18.13-10.77A5.08,5.08,0,0,0,329.6,148.65Z" fill="#68e1fd"></path><path d="M316,172.81s-4.65-.49-5.81-3-4-22.74-4-22.74l8.08,1.67" fill="#68e1fd"></path><path d="M314.89,150.5s2.18,16.58,4,18,12.46-7.31,12.46-7.31l2.39-21.41,3.11-1.63s-2,21.48-2.73,24S318.55,173.69,316,172.81s-5.81-24.19-5.81-24.19" fill="#68e1fd"></path><path d="M316,172.81s-4.65-.49-5.81-3-4-22.74-4-22.74l8.08,1.67"></path><path d="M314.89,150.5s2.18,16.58,4,18,12.46-7.31,12.46-7.31l2.39-21.41,3.11-1.63s-2,21.48-2.73,24S318.55,173.69,316,172.81s-5.81-24.19-5.81-24.19"></path><path d="M336.81,135.84l0,2.32a2.69,2.69,0,0,1-1.4,2.4L314.09,152.2a2.69,2.69,0,0,1-2.8-.14l-4-2.73a2.69,2.69,0,0,1-1.17-2.22v-2.2" fill="#68e1fd"></path><path d="M335.84,133.17l-3-2.29a2.64,2.64,0,0,0-2.82-.25l-22.51,11.66a2.64,2.64,0,0,0-.18,4.59l2.8,1.74a4.06,4.06,0,0,0,4,.15l21.29-11.17A2.64,2.64,0,0,0,335.84,133.17Z" fill="#68e1fd"></path><g opacity="0.28"><path d="M336.81,135.84l0,2.32a2.69,2.69,0,0,1-1.4,2.4L314.09,152.2a2.69,2.69,0,0,1-2.8-.14l-4-2.73a2.69,2.69,0,0,1-1.17-2.22v-2.2"></path><path d="M335.84,133.17l-3-2.29a2.64,2.64,0,0,0-2.82-.25l-22.51,11.66a2.64,2.64,0,0,0-.18,4.59l2.8,1.74a4.06,4.06,0,0,0,4,.15l21.29-11.17A2.64,2.64,0,0,0,335.84,133.17Z"></path></g><path d="M300.65,113.46l0,2.32a2.69,2.69,0,0,1-1.4,2.4l-21.36,11.63a2.69,2.69,0,0,1-2.8-.14l-4-2.73a2.69,2.69,0,0,1-1.17-2.22v-2.2" fill="#68e1fd"></path><path d="M299.68,110.79l-3-2.29a2.64,2.64,0,0,0-2.82-.25l-22.51,11.66a2.64,2.64,0,0,0-.18,4.59l2.8,1.74a4.06,4.06,0,0,0,4,.15l21.29-11.17A2.64,2.64,0,0,0,299.68,110.79Z" fill="#68e1fd"></path><g opacity="0.28"><path d="M300.65,113.46l0,2.32a2.69,2.69,0,0,1-1.4,2.4l-21.36,11.63a2.69,2.69,0,0,1-2.8-.14l-4-2.73a2.69,2.69,0,0,1-1.17-2.22v-2.2"></path><path d="M299.68,110.79l-3-2.29a2.64,2.64,0,0,0-2.82-.25l-22.51,11.66a2.64,2.64,0,0,0-.18,4.59l2.8,1.74a4.06,4.06,0,0,0,4,.15l21.29-11.17A2.64,2.64,0,0,0,299.68,110.79Z"></path></g><path d="M65.38,204.36l14.89-28.79L70,168,33.63,184C43.05,190.79,55.37,198.51,65.38,204.36Z" fill="url(#linear-gradient-2)"></path><path d="M66.14,143.19A29.63,29.63,0,0,0,60,163.56c.83,11.89,7.52,15.35,7.52,15.35l8,.44s9.48-3.09,8.24-18.56c-1.16-14.52-5.88-17.94-5.88-17.94" fill="#68e1fd"></path><ellipse cx="72.01" cy="143.19" rx="5.87" ry="2.07" fill="#003b94"></ellipse><ellipse cx="72.01" cy="177.65" rx="5.87" ry="2.07" fill="#68e1fd"></ellipse><path d="M69.6,143.82l-7.1-40.75c-.15-.89-1.51-.51-1.35.37l7.1,40.75C68.41,145.08,69.76,144.7,69.6,143.82Z" fill="#007f68"></path><path d="M70.89,144a1.69,1.69,0,0,1,.65,0,1.47,1.47,0,0,1,.73.44q.85-17.08.31-34.18c0-.9-1.43-.9-1.4,0Q71.72,127.1,70.89,144Z" fill="#007f68"></path><path d="M86.86,104.41a374.73,374.73,0,0,0-13.72,39.16.7.7,0,0,0,1.35.37,374.72,374.72,0,0,1,13.72-39.16C88.56,103.95,87.2,103.58,86.86,104.41Z" fill="#007f68"></path><path d="M64,119.87s-.77-.09-4.12-3.62.88-6.18-1.06-10.15.79-9.18,1.41-13.15a18.41,18.41,0,0,0,2.94,7.76c2.53,3.62,3.94,6.88,3.67,11.47a40.61,40.61,0,0,1-1.49,8.56" fill="#007f68"></path><path d="M71.21,126.16s-.72-.28-3.12-4.51,2.36-5.78,1.44-10.1,3-8.71,4.56-12.41a18.41,18.41,0,0,0,1,8.25c1.57,4.12,2.15,7.63.78,12a40.61,40.61,0,0,1-3.52,7.94" fill="#007f68"></path><path d="M81.21,118.82s-.65-.42-2.13-5.06,3.49-5.17,3.48-9.59,4.72-7.91,7-11.21a18.41,18.41,0,0,0-.74,8.27c.69,4.36.54,7.91-1.7,11.92a40.61,40.61,0,0,1-5.07,7.05" fill="#007f68"></path><path d="M170.34,124.86l-.49-47.79s4.51-21.23,12.64-21.55,10.7-.8,13,2S191.95,86,191.95,86l-2.87,42.55" fill="#fff"></path><path d="M162.61,105.93c-6.68.51-19-19.08-19-19.08,6.82-3.61,7.14-11.51,7.14-11.51l16.81,15.47" fill="#dbdbdb"></path><path d="M143.63,86.85s-3.18-.67-.72-6.61,6.05-6.56,7.86-4.9S149.72,87.3,143.63,86.85Z" fill="#9e9e9e"></path><path d="M145.81,86.71c2.55-1.26,4-3.82,5-6.46a5.94,5.94,0,0,1-.68-1.07c.12-.93.24-1.87.32-2.81a31,31,0,0,1,2.08-7.44c.65-1.84-2.27-2.63-2.91-.8a50.51,50.51,0,0,0-1.82,5.54l-1-10.75c-.18-1.92-3.2-1.94-3,0l.71,7.59c-.39-2.74-.73-5.49-1-8.25-.16-1.92-3.18-1.94-3,0,0,.5.1,1,.14,1.49-.94-.47-2.28-.08-2.16,1.23.08.79.17,1.57.27,2.35a1.58,1.58,0,0,0-1.68,1.88C138.55,75.84,141.12,82,145.81,86.71Z" fill="#f0b387"></path><path d="M175.74,213.9s-.83,11.24-2.78,12.9-9.68,7.59-11,8.56-.07,4.18,4.5,4.18,13.29-5.39,13.29-5.39l6.45-2.4s.9-10.89-.49-17.6S175.74,213.9,175.74,213.9Z" fill="#4a2b0f"></path><path d="M197.54,232.08S193,254,196,255.69s9.73-1.95,10.77-5.71.65-26.08,0-26.21" fill="#4a2b0f"></path><path d="M169.66,136.82l1.13,81.35s10,3.42,19.54,0l-1.88-77L194,235.78a22.08,22.08,0,0,0,17,0l-1.77-105.92-38.44-10.65Z" fill="#68e1fd"></path><path d="M183.69,53.67s-10.55-3-15.72,9.05c-7,16.32-7.35,109.68-7.35,109.68s3.74,4.23,11.53,6.3c0,0,.9-96.35,1.67-102.44C175.08,66.2,183.69,53.67,183.69,53.67Z" fill="#dbdbdb"></path><path d="M175.63,54.42s-6,7.08-5.5,7.08,2.13,2.13,2.13,2.13l-3.37,3.26,4.32,45.61s-3.14-33.15,10.51-58.75C183.71,53.76,177.87,53.06,175.63,54.42Z" fill="#eef3f7"></path><path d="M193.84,56.39s10.57,3.68,13.32,13.39c2.83,10,3.27,110.76,3.27,111.82s-6.72,5.26-12.4,6.1-14-2.39-14-2.39l-1.52-58.75s.72-33.78,1.52-40.21S193.84,56.39,193.84,56.39Z" fill="#dbdbdb"></path><path d="M198.65,137.66q-.49-25-.45-50a.87.87,0,0,0-1.74,0q-.07,25.21.46,50.42Z" fill="#9e9e9e"></path><path d="M195,169.18s23-21.86,24.62-20.89,1.45,34.07,1.13,35-16.14,17.2-18,17.68-9.29,0-9.29,0Z" fill="#4a2b0f"></path><path d="M202,165.69s-2.72-14.67,5.14-17.43,5.79,8.57,5.79,8.57l2.76-3.25s-.65-11.27-9-8.27-9.56,14-8.18,22.16" fill="#4a2b0f"></path><path d="M210,134.26a23.9,23.9,0,0,1-9.13,3.2,30.72,30.72,0,0,1-2.54,6.58c-.58,2.55-.65,5,2,4.77a.87.87,0,0,0,.73-.54c.08.7.16,1.39.25,2.09a.65.65,0,0,0,.2.36,1.36,1.36,0,0,0,1.48.92,1.15,1.15,0,0,0,.58-.23,1.47,1.47,0,0,0,1.05,1.26,1.26,1.26,0,0,0,1.54-.68,1.6,1.6,0,0,0,2,.62,2,2,0,0,0,1-1.19.81.81,0,0,0,.35-.32c2-3.51,1.64-7.35.62-11.09C210.11,138.09,210.08,136.18,210,134.26Z" fill="#f0b387"></path><path d="M193.84,56.06,198,58.52l-1.58,8.87-5.16.69L193,73s-5.53,12.18-6.48,14.25-3.59,22.3-3.59,22.3.61-21.91,1.28-24.69S188.78,64.38,193.84,56.06Z" fill="#eef3f7"></path><ellipse cx="173.82" cy="72.79" rx="3.14" ry="3.5" transform="translate(-13.68 53.94) rotate(-16.98)" fill="#9e9e9e"></ellipse><path d="M174.61,70.62c-.29-.2.24-18.9,11-17.78s9.91,9.13,9.5,13.25l1.74.24s2-14.3-11.77-14.33-11.56,19.76-11.56,19.76" fill="#9e9e9e"></path><path d="M176.84,43.38s-3-1.39-3-5.68,6.64-7.51,9.35-7.89c3.52-.5,15.25,1,16,9.73.5,6.1-3.67,16.93-6.73,17" fill="#4a2b0f"></path><path d="M193,50.53a39.44,39.44,0,0,0-1.11-4q-.23-.68-.49-1.35c-.84-2.17-2.11-1.52-4.1-1.52a18.31,18.31,0,0,1-4.49-.45,24.24,24.24,0,0,1-6.4-2.74c-.29,4.7-.49,18.5,7.16,19.68,4.65.72,7.19-1.12,8.61-3.32C192.5,54.71,192.74,52.62,193,50.53Z" fill="#f0b387"></path><path d="M191.3,50s1.85-4.69,3.26-2.37c1.56,2.59-1.79,4.41-1.79,4.41" fill="#f0b387"></path><ellipse cx="177.89" cy="48.33" rx="3.06" ry="3.66" transform="translate(-6.36 54.06) rotate(-16.98)" fill="none" stroke="#42210b" stroke-miterlimit="10" stroke-width="0.25"></ellipse><ellipse cx="186.15" cy="50.34" rx="3.06" ry="3.66" transform="translate(-6.59 56.56) rotate(-16.98)" fill="none" stroke="#42210b" stroke-miterlimit="10" stroke-width="0.25"></ellipse><line x1="189.07" y1="49.44" x2="195.16" y2="45.32" fill="none" stroke="#42210b" stroke-miterlimit="10" stroke-width="0.25"></line><path d="M181.17,49.25s1.47,0,1.86.51" fill="none" stroke="#42210b" stroke-miterlimit="10" stroke-width="0.25"></path><path d="M195.14,83.65c1.67-.06,4.33,0,5.76-.95s1.2-2.19,1-3.84c-.34-3.84-.64-11-5.05-12.52-3.84-1.36-7.08,1.45-8.44,4.82-.89,2.19-2.33,5.77-1.79,8.22.43,1.94,2.53,3,4.22,3.7.32.14.59-.33.27-.47-2-.86-4.06-2-4-4.43a21.37,21.37,0,0,1,1.48-6.12c1.33-3.6,4.83-6.95,8.73-4.84,3.2,1.73,3.56,7.82,3.92,11,.24,2.05.5,3.39-1.79,4.39a12.81,12.81,0,0,1-4.4.53c-.35,0-.35.55,0,.54Z" fill="#4d4d4d"></path><path d="M189.93,82.32c0,.3-.41.78,0,1s1.71.78,1.84.35.33-1.08,0-1.33S189.93,81.34,189.93,82.32Z" fill="#4a2b0f"></path><path d="M194.43,83.25c.06.29-.23.84.21,1s1.84.39,1.87-.05.09-1.13-.28-1.3S194.22,82.3,194.43,83.25Z" fill="#4a2b0f"></path><path d="M140.73,73.55A4.72,4.72,0,0,1,146,73a.31.31,0,0,0,.32-.54,5.33,5.33,0,0,0-6,.61c-.32.25.13.69.44.44Z" fill="#42210b"></path><path d="M147.12,74.16a5.42,5.42,0,0,0-3.21,5.54c0,.4.65.4.63,0a4.81,4.81,0,0,1,2.75-4.94c.37-.14.21-.75-.17-.61Z" fill="#42210b"></path><path d="M143.66,63.84l.72,7.65c0,.4.67.4.63,0l-.72-7.65c0-.4-.67-.4-.63,0Z" fill="#42210b"></path><path d="M140.53,64.76l1,6.3c.06.4.67.23.61-.17l-1-6.3c-.06-.4-.67-.23-.61.17Z" fill="#42210b"></path><path d="M138.63,68.37l1.17,3.21c.14.38.74.21.61-.17l-1.17-3.21c-.14-.38-.74-.21-.61.17Z" fill="#42210b"></path><path d="M208.88,133.26a32.69,32.69,0,0,1-11.26,4c-1.1.18-.64,1.86.46,1.68a34,34,0,0,0,11.68-4.19A.87.87,0,0,0,208.88,133.26Z" fill="#9e9e9e"></path><path d="M329.54,198.69c-.12,0-14.46-3.54-14.59-3.56a86.49,86.49,0,0,1-12.28-2.66A1.36,1.36,0,0,1,302,192l-.75-.08-21-13.58-33.82,19.91L283,220.39c4.84-4.72,15.64-7.52,22.26-9C313.08,209.74,323,205.41,329.54,198.69Z" fill="url(#linear-gradient-3)"></path></svg>